<svg id="Capa_1" data-name="Capa 1" xmlns="http://www.w3.org/2000/svg" viewBox="0 0 280 280"><defs><style>.cls-1{fill:#9ad3d1;}.cls-2{opacity:0.7;}</style></defs><title>15-16</title><rect class="cls-1" width="280" height="280"/><path class="cls-2" d="M48.41,119.46a20.06,20.06,0,0,0-.49-5.73,2,2,0,0,0-2.06-1.25,2.31,2.31,0,0,0-2,1q-.71,1-.7,6v30q0,5.6.46,6.9a2,2,0,0,0,2.14,1.31,2.07,2.07,0,0,0,2.2-1.51c.32-1,.47-3.39.47-7.18Zm10.92,47.72V175H52.57a20.59,20.59,0,0,1-6.47-.7,4.29,4.29,0,0,1-2.54-2.09,12.88,12.88,0,0,1-.66-5,18,18,0,0,1-9.83-3,13.22,13.22,0,0,1-5.44-7.16q-1.32-4.35-1.32-13V124.18a48,48,0,0,1,.78-10,15.89,15.89,0,0,1,3.22-6.47,15.22,15.22,0,0,1,6.27-4.58,22.63,22.63,0,0,1,8.52-1.54,25.16,25.16,0,0,1,10,1.9,15.76,15.76,0,0,1,6.59,4.83,15.47,15.47,0,0,1,2.84,6.09,49.45,49.45,0,0,1,.66,9.38v20.86q0,8.56-.84,11.62a8.82,8.82,0,0,1-3.22,4.85,17,17,0,0,1-6.33,2.76c.08,1.44.38,2.34.9,2.71s.56.56,2.51.56Z"/><path class="cls-2" d="M109.76,103v42.92a74.21,74.21,0,0,1-.47,10.25,13.88,13.88,0,0,1-2.84,6.07,14.68,14.68,0,0,1-6.22,4.72,23.55,23.55,0,0,1-9.09,1.61,25.75,25.75,0,0,1-10.23-1.91,15.38,15.38,0,0,1-6.64-5,13.68,13.68,0,0,1-2.59-6.45q-.41-3.39-.4-14.26V103H88.1v48.16a19.08,19.08,0,0,0,.46,5.37,1.81,1.81,0,0,0,1.86,1.17,2,2,0,0,0,2.06-1.29,23.66,23.66,0,0,0,.46-6.09V103Z"/><rect class="cls-2" x="116.28" y="102.96" width="16.83" height="65.56"/><polygon class="cls-2" points="172.33 103.42 172.33 133.18 159.59 133.18 152.02 119.65 152.02 133.18 139.86 133.18 139.86 103.42 152.02 103.42 160.17 116.82 160.17 103.42 172.33 103.42"/><path class="cls-2" d="M218.34,130.93H201.51V119.76q0-4.86-.54-6.07a2.33,2.33,0,0,0-2.38-1.21A2.5,2.5,0,0,0,196,114a22.28,22.28,0,0,0-.56,6.35v29.82a20.77,20.77,0,0,0,.56,6.11,2.41,2.41,0,0,0,2.52,1.43,2.38,2.38,0,0,0,2.46-1.43c.39-1,.58-3.19.58-6.72v-8.07h16.83v2.5q0,10-1.42,14.14t-6.28,7.31a21.64,21.64,0,0,1-12,3.14q-7.39,0-12.19-2.66a12.91,12.91,0,0,1-6.35-7.36q-1.56-4.69-1.56-14.14V125.61a82.62,82.62,0,0,1,.48-10.41,14.47,14.47,0,0,1,2.86-6.68,15.82,15.82,0,0,1,6.59-5.06,24,24,0,0,1,9.69-1.84q7.44,0,12.27,2.85a13.72,13.72,0,0,1,6.36,7.11q1.52,4.26,1.52,13.25Z"/><polygon class="cls-2" points="224.37 102.96 224.37 168.31 253.55 168.31 253.55 155.23 241.2 155.23 241.2 140.86 251.71 140.86 251.71 128.43 241.2 128.43 241.2 116.04 252.43 116.04 252.43 102.96 224.37 102.96"/><path class="cls-2" d="M152.16,138.67v29.15h-7.28V152.19a27.32,27.32,0,0,0-.16-4.07,1.49,1.49,0,0,0-.89-1,9,9,0,0,0-3.25-.36h-.72v-3.39a13.23,13.23,0,0,0,8-4.67Z"/><path class="cls-2" d="M165.18,155.5a4.49,4.49,0,0,0-.35-2.12,1.18,1.18,0,0,0-1.11-.58,1.24,1.24,0,0,0-1.11.55,4.49,4.49,0,0,0-.35,2.15v5.28a6.15,6.15,0,0,0,.33,2.52,1.16,1.16,0,0,0,1.11.59,1.48,1.48,0,0,0,1-.45c.34-.31.51-1.14.51-2.48Zm7.27-9.09h-7.27c0-1.36,0-2.21-.05-2.57a1.33,1.33,0,0,0-.43-.89,1.49,1.49,0,0,0-1-.36,1.3,1.3,0,0,0-.92.34,1.41,1.41,0,0,0-.42.89c0,.36-.05,1.08-.05,2.18v4.64a3.77,3.77,0,0,1,1.64-1.75,5.53,5.53,0,0,1,2.66-.59,6,6,0,0,1,3.53,1.08A4.74,4.74,0,0,1,172,152a16.46,16.46,0,0,1,.41,4.09v2.32a33.32,33.32,0,0,1-.23,4.56A5.87,5.87,0,0,1,171,165.7a6.61,6.61,0,0,1-2.79,2,11.4,11.4,0,0,1-4.14.7,12.16,12.16,0,0,1-4.8-.81,6.42,6.42,0,0,1-2.89-2.33,6.93,6.93,0,0,1-1.19-3.2c-.12-1.12-.17-3.28-.17-6.5v-4q0-5.2.15-7a6.82,6.82,0,0,1,4.25-5.68,11.45,11.45,0,0,1,4.38-.78,11.18,11.18,0,0,1,5,1,5.94,5.94,0,0,1,2.81,2.79,10.76,10.76,0,0,1,.84,4.54"/><polygon class="cls-2" points="156.26 88.02 139.86 101.62 172.65 101.62 156.26 88.02"/></svg>