<svg id="Capa_1" data-name="Capa 1" xmlns="http://www.w3.org/2000/svg" viewBox="0 0 280 280"><defs><style>.cls-1{fill:#9ad3d1;}.cls-2{opacity:0.7;}</style></defs><title>ADN</title><rect class="cls-1" width="280" height="280"/><g class="cls-2"><path id="path6" d="M70.91,91c2.3,0,4.59-.26,6.89-.09A52.8,52.8,0,0,1,92.26,93,24.91,24.91,0,0,1,111,116.29a49.17,49.17,0,0,1,.16,5.43v53H91c0-2.39,0-4.78,0-7.17a26.1,26.1,0,0,1-8.36,5.94,27.69,27.69,0,0,1-9.25,2,49,49,0,0,1-10-.49,25.58,25.58,0,0,1-12.24-5.21,23.43,23.43,0,0,1-7.76-13,29.44,29.44,0,0,1,0-13.81,21.35,21.35,0,0,1,8.12-12c5.18-3.78,11.68-5.22,18-5.4h21c0-2.87.18-5.77-.48-8.59a10,10,0,0,0-3.32-5.63,12.37,12.37,0,0,0-4.87-2.27,32.37,32.37,0,0,0-8.84-.65,17.81,17.81,0,0,0-9.38,2.68,23.05,23.05,0,0,0-4.49,4.11c-4.42-4.28-8.82-8.6-13.23-12.9a32.39,32.39,0,0,1,12.59-9A41.63,41.63,0,0,1,70.91,91m.87,48.89a11.54,11.54,0,0,0-6.7,2.73,8.69,8.69,0,0,0-2.57,6.71,8.59,8.59,0,0,0,3.09,6.88c2.43,1.93,5.63,2.44,8.65,2.5a27.3,27.3,0,0,0,8.3-.94,13.42,13.42,0,0,0,5.15-3.26,9,9,0,0,0,2.21-4.24c.83-3.45.57-7,.62-10.54H75.66a36,36,0,0,0-3.88.16Z"/><path id="path8" d="M202.72,99.32a28.37,28.37,0,0,1,21-8.5,29.4,29.4,0,0,1,13.24,2.92,26,26,0,0,1,11.8,12.6,34.64,34.64,0,0,1,2.68,12.59c.12,4.21.06,8.42.08,12.64q0,21.62,0,43.24H230.71V125.59a21.89,21.89,0,0,0-1-7.41,12.39,12.39,0,0,0-3.92-5.78,13.25,13.25,0,0,0-6.86-2.79,15.39,15.39,0,0,0-8.1,1.16,12,12,0,0,0-5.63,5.13,18.17,18.17,0,0,0-2,9.16v49.75H182.45q0-41.55,0-83.08,10.13,0,20.26,0c0,2.53,0,5.06,0,7.59Z"/><path id="path10" d="M116.65,174.79q0-41.49,0-83h31.53c6.37.09,12.88,1.61,18.16,5.27a28,28,0,0,1,6.83,6.87,27.21,27.21,0,0,1,4.46,10.84c1.16,6.28.73,12.69.79,19,0,5.92.3,11.9-.76,17.76a27.31,27.31,0,0,1-4.51,11.06,28,28,0,0,1-6.53,6.64c-5.47,3.91-12.32,5.43-19,5.49-10.34,0-20.68,0-31,0m20.4-64.8v46.57h6.39c2.49,0,5.05.16,7.43-.72a10.23,10.23,0,0,0,6-5.93c.88-2.62.86-5.43,1-8.16.1-3.1.08-6.21.11-9.31-.07-2.93,0-5.86-.18-8.78a33.31,33.31,0,0,0-.59-5.64,10.24,10.24,0,0,0-3.62-5.77A11.88,11.88,0,0,0,145.9,110Z"/><g id="_005e96ff" data-name="#005e96ff"><path id="path13" d="M32.67,91.91a5.35,5.35,0,0,1,3.74.59,5.28,5.28,0,0,1-.36,9.31,5.36,5.36,0,0,1-4.66-.06,5.22,5.22,0,0,1-2.84-4.08,5.71,5.71,0,0,1,.22-2.25A5.28,5.28,0,0,1,32.67,91.91Z"/></g><g id="_ea851cff" data-name="#ea851cff"><path id="path16" d="M32.67,104.38a5.27,5.27,0,0,1,3.51,9.84,5.38,5.38,0,0,1-5.27-.26,5.31,5.31,0,0,1-2.09-6.23A5.25,5.25,0,0,1,32.67,104.38Z"/></g><g id="_8bb837ff" data-name="#8bb837ff"><path id="path19" d="M32.67,116.85a5.27,5.27,0,1,1-.41,10.2,5.28,5.28,0,0,1,.41-10.2Z"/></g><g id="_d7181eff" data-name="#d7181eff"><path id="path22" d="M32.36,129.4a5.27,5.27,0,1,1-3.79,5.84,5.64,5.64,0,0,1,.22-2.45,5.25,5.25,0,0,1,3.57-3.39Z"/></g></g></svg>