<svg id="Capa_1" data-name="Capa 1" xmlns="http://www.w3.org/2000/svg" viewBox="0 0 280 280"><defs><style>.cls-1{fill:#9ad3d1;}.cls-2{opacity:0.7;}</style></defs><title>CP</title><rect class="cls-1" width="280" height="280"/><g class="cls-2"><path d="M20.37,229.68v0a7,7,0,0,1,7.23-7.17,7.34,7.34,0,0,1,4.63,1.4,1.54,1.54,0,0,1,.6,1.21,1.5,1.5,0,0,1-1.51,1.49,1.61,1.61,0,0,1-.91-.3,4.57,4.57,0,0,0-2.83-1,4.11,4.11,0,0,0-4,4.32v0a4.12,4.12,0,0,0,4,4.36,4.46,4.46,0,0,0,3-1.09,1.41,1.41,0,0,1,.91-.34,1.41,1.41,0,0,1,.91,2.5,7,7,0,0,1-4.93,1.74A7,7,0,0,1,20.37,229.68Z"/><path d="M35,229.68v0a7.17,7.17,0,0,1,7.39-7.17,7.1,7.1,0,0,1,7.35,7.13v0a7.17,7.17,0,0,1-7.39,7.17A7.1,7.1,0,0,1,35,229.68Zm11.55,0v0a4.21,4.21,0,0,0-4.2-4.36,4.14,4.14,0,0,0-4.16,4.32v0a4.21,4.21,0,0,0,4.2,4.36A4.14,4.14,0,0,0,46.54,229.68Z"/><path d="M52.45,224.15A1.51,1.51,0,0,1,54,222.63h.32a1.86,1.86,0,0,1,1.58.89l5.89,7.72v-7.15a1.51,1.51,0,0,1,3,0v11a1.51,1.51,0,0,1-1.53,1.52h-.1a1.88,1.88,0,0,1-1.58-.89l-6.1-8v7.43a1.51,1.51,0,0,1-3,0Z"/><path d="M68.1,235.05V224.23a1.52,1.52,0,0,1,1.52-1.53h7.69a1.38,1.38,0,0,1,1.37,1.37,1.36,1.36,0,0,1-1.37,1.35H71.13v2.81h5.29a1.38,1.38,0,0,1,1.37,1.37A1.36,1.36,0,0,1,76.42,231H71.13v2.91h6.28a1.37,1.37,0,0,1,1.37,1.37,1.35,1.35,0,0,1-1.37,1.34H69.62A1.51,1.51,0,0,1,68.1,235.05Z"/><path d="M81.08,234.12l3.74-4.6-3.52-4.3a1.85,1.85,0,0,1-.46-1.13,1.46,1.46,0,0,1,1.51-1.5,1.57,1.57,0,0,1,1.4.75l3,4,3-4a1.72,1.72,0,0,1,1.48-.83,1.39,1.39,0,0,1,1.39,1.4,1.8,1.8,0,0,1-.46,1.17l-3.52,4.32,3.72,4.58a1.83,1.83,0,0,1,.46,1.13,1.47,1.47,0,0,1-1.51,1.5,1.62,1.62,0,0,1-1.41-.75l-3.25-4.26-3.21,4.18a1.74,1.74,0,0,1-1.48.83,1.39,1.39,0,0,1-1.39-1.4A1.78,1.78,0,0,1,81.08,234.12Z"/><path d="M95.58,224.11a1.53,1.53,0,0,1,3,0v11.06a1.53,1.53,0,0,1-3,0Z"/><path d="M101.49,229.68v0a7.37,7.37,0,0,1,14.74,0v0a7.37,7.37,0,0,1-14.74,0Zm11.55,0v0a4.22,4.22,0,0,0-4.2-4.36,4.14,4.14,0,0,0-4.16,4.32v0a4.21,4.21,0,0,0,4.2,4.36A4.15,4.15,0,0,0,113,229.68ZM108,221a1,1,0,0,1,.2-.53l1.09-1.71a1.31,1.31,0,0,1,1.13-.67c.74,0,1.69.45,1.69.91a1,1,0,0,1-.4.71l-1.23,1.15a2.19,2.19,0,0,1-1.72.66C108.34,221.54,108,221.34,108,221Z"/><path d="M118.94,224.15a1.52,1.52,0,0,1,1.53-1.52h.32a1.88,1.88,0,0,1,1.58.89l5.88,7.72v-7.15a1.51,1.51,0,0,1,3,0v11a1.52,1.52,0,0,1-1.53,1.52h-.1a1.86,1.86,0,0,1-1.58-.89l-6.11-8v7.43a1.51,1.51,0,0,1-3,0Z"/><path d="M140.54,224.23a1.52,1.52,0,0,1,1.53-1.53h4.14c3.31,0,5.31,2,5.31,4.8v0c0,3.21-2.5,4.87-5.61,4.87h-2.32v2.76a1.53,1.53,0,0,1-3.05,0ZM146,229.7a2.15,2.15,0,0,0,2.42-2.1v0c0-1.37-1-2.1-2.48-2.1h-2.36v4.24Z"/><path d="M153.56,230.63v-6.52a1.53,1.53,0,0,1,3.05,0v6.44c0,2.26,1.13,3.43,3,3.43s3-1.13,3-3.33v-6.54a1.53,1.53,0,0,1,3,0v6.42c0,4.2-2.35,6.26-6.08,6.26S153.56,234.71,153.56,230.63Z"/><path d="M168.76,224.23a1.52,1.52,0,0,1,1.52-1.53h4.92a5,5,0,0,1,3.62,1.23,3.17,3.17,0,0,1,1,2.36v0a3.21,3.21,0,0,1-1.82,3c1.6.62,2.59,1.55,2.59,3.41v0c0,2.54-2.06,3.8-5.19,3.8h-5.07a1.51,1.51,0,0,1-1.52-1.52Zm5.78,4.08c1.35,0,2.2-.43,2.2-1.46v0c0-.92-.71-1.43-2-1.43h-3v2.93Zm.81,5.59c1.35,0,2.16-.48,2.16-1.51v0c0-.93-.69-1.5-2.26-1.5h-3.52v3.05Z"/><path d="M183.06,224.11a1.53,1.53,0,0,1,3.05,0v9.69h5.65a1.39,1.39,0,1,1,0,2.77h-7.17a1.52,1.52,0,0,1-1.53-1.52Z"/><path d="M195.47,224.11a1.53,1.53,0,0,1,3.05,0v11.06a1.53,1.53,0,0,1-3.05,0Z"/><path d="M201.37,229.68v0a7,7,0,0,1,7.23-7.17,7.37,7.37,0,0,1,4.64,1.4,1.53,1.53,0,0,1,.59,1.21,1.49,1.49,0,0,1-1.5,1.49,1.56,1.56,0,0,1-.91-.3,4.62,4.62,0,0,0-2.84-1,4.11,4.11,0,0,0-4,4.32v0a4.12,4.12,0,0,0,4,4.36,4.46,4.46,0,0,0,3-1.09,1.42,1.42,0,0,1,2.34,1.07,1.47,1.47,0,0,1-.51,1.09,7.31,7.31,0,0,1-12-5.39Z"/><path d="M216.75,224.11a1.53,1.53,0,0,1,3.05,0v11.06a1.53,1.53,0,0,1-3.05,0Z"/><path d="M223.27,224.23a1.52,1.52,0,0,1,1.52-1.53h3.88c4.36,0,7.37,3,7.37,6.9v0c0,3.9-3,6.93-7.37,6.93h-3.88a1.51,1.51,0,0,1-1.52-1.52Zm5.4,9.59a4,4,0,0,0,4.18-4.14v0a4,4,0,0,0-4.18-4.18h-2.35v8.36Z"/><path d="M238,234.61l4.83-10.92a1.89,1.89,0,0,1,1.79-1.2h.17a1.86,1.86,0,0,1,1.77,1.2l4.83,10.92a1.5,1.5,0,0,1,.16.62,1.44,1.44,0,0,1-1.45,1.46,1.53,1.53,0,0,1-1.46-1.05l-.93-2.18h-6.11l-1,2.28a1.48,1.48,0,0,1-1.4.95,1.4,1.4,0,0,1-1.41-1.42A1.63,1.63,0,0,1,238,234.61Zm8.58-3.84-1.93-4.58-1.92,4.58Z"/><path d="M253.94,224.23a1.52,1.52,0,0,1,1.52-1.53h3.89c4.36,0,7.37,3,7.37,6.9v0c0,3.9-3,6.93-7.37,6.93h-3.89a1.51,1.51,0,0,1-1.52-1.52Zm5.41,9.59a4,4,0,0,0,4.18-4.14v0a4,4,0,0,0-4.18-4.18H257v8.36Z"/><path d="M193.29,25.38h0l-58.11.09h0a89.93,89.93,0,0,0,0,179.85h0l27.7-.18h.84a3,3,0,0,0,.8-.13,10.86,10.86,0,0,0,9.09-10.77V143A19.39,19.39,0,0,1,193,123.68h.34a49.15,49.15,0,1,0,0-98.3ZM135.09,183.5a68.11,68.11,0,0,1,0-136.22h13.82c1.53,0,2.67.9,2.67,1.7,0,.08,0,.15,0,.22s0,.15,0,.22V178.25a5.26,5.26,0,0,1-5.34,5.16h0Zm58.51-82.16H177.09c-1.53,0-2.68-.9-2.68-1.7V49.42c0-.8,1.15-1.7,2.68-1.7H193.6a26.81,26.81,0,0,1,0,53.62Z"/></g></svg>