<?xml version="1.0" encoding="utf-8"?>
<!-- Generator: Adobe Illustrator 24.0.1, SVG Export Plug-In . SVG Version: 6.00 Build 0)  -->
<svg version="1.1" id="Capa_1" xmlns="http://www.w3.org/2000/svg" xmlns:xlink="http://www.w3.org/1999/xlink" x="0px" y="0px"
	 viewBox="0 0 280 280" style="enable-background:new 0 0 280 280;" xml:space="preserve">
<style type="text/css">
	.st0{fill:#9AD3D1;}
	.st1{opacity:0.7;enable-background:new    ;}
</style>
<title>EL HERALDO</title>
<rect class="st0" width="280" height="280"/>
<path class="st1" d="M143.6,33.2c53-0.1,96.1,42.8,96.2,95.8c0.1,53-42.8,96.1-95.8,96.2c-52.7,0.1-95.6-42.3-96.2-95
	c-0.6-53,41.8-96.4,94.8-97C142.9,33.2,143.3,33.2,143.6,33.2z M79.1,184.3h48.4c3.4,0,6.8,0,10.3,0c1.1,0,1.7-0.2,1.7-1.5
	c-0.1-3.9,0-7.8,0-11.7c0-1.2-0.5-1.6-1.6-1.6c-1.8,0-3.6,0-5.4-0.1c-4.4-0.4-5.7-1.6-6.1-6.1c0-0.4-0.1-0.8-0.1-1.3
	c0-8.4,0.1-16.9,0-25.3c0-1.8,0.6-2.2,2.3-2.2c10.3,0.1,20.6,0,30.9,0c0.6,0,1.2,0.1,1.8,0.2c0,9.8,0,19.4,0,29.1
	c0,0.5-0.2,0.9-0.3,1.4c-0.1,1.9-1.6,3.4-3.5,3.6c-2.5,0.3-5,0.6-7.5,0.6c-1.2,0.1-2,0.3-1.9,1.7c0.1,3.8,0,7.7,0,11.5
	c0,1.2,0.5,1.6,1.6,1.6c1.7-0.1,3.5,0,5.2,0h50.8c2.8,0,2.8,0,2.8-2.9c0-3.1-0.1-6.1,0.1-9.2c0.1-2.1-0.5-2.7-2.7-2.7
	c-3.3,0-6.7-0.2-10-0.6c-1.8-0.1-3.1-1.6-3.2-3.3c-0.3-1.8-0.4-3.6-0.5-5.4c0-20.4,0-40.7,0-61.1c0-1.9,0.2-3.8,0.4-5.6
	c0-1.9,1.4-3.5,3.3-3.8c2.8-0.4,5.5-0.6,8.3-0.8c1.4-0.1,2.7,0,4.1,0V74.3h-60.3c0,4.6,0,9.1,0.1,13.6c0,0.3,1,0.8,1.6,0.8
	c1.9,0.2,3.9,0.2,5.8,0.4c4,0.4,5.6,1.8,5.7,5.8c0.1,8,0,16,0,24c0,0.1-0.1,0.2-0.2,0.3c-0.1,0.1-0.3,0.1-0.4,0.1c-11,0-22,0.1-33,0
	c-0.6-0.2-1.1-0.7-1.3-1.3c-0.1-7.8-0.2-15.6,0-23.4c0.1-4,1.6-5.2,5.6-5.5c2.4-0.2,4.8-0.4,7.3-0.6V74.4h-60v14.4
	c1.7,0,3.2,0,4.7,0s3.2,0.2,4.8,0.3c5.1,0.5,6.3,1.6,6.3,6.8c0.1,21.7,0,43.4,0.1,65.1c0,1,0,2.1-0.2,3.1c-0.4,3.2-1.3,4.4-4.5,4.8
	s-6.5,0.3-9.8,0.6c-0.6,0-1.6,0.8-1.6,1.2C79,175.2,79.1,179.6,79.1,184.3z"/>
</svg>
