<svg id="Capa_1" data-name="Capa 1" xmlns="http://www.w3.org/2000/svg" viewBox="0 0 280 280"><defs><style>.cls-1{fill:#9ad3d1;}.cls-2{opacity:0.7;}</style></defs><title>EL TUNEL</title><rect class="cls-1" width="280" height="280"/><g class="cls-2"><path d="M212.49,154.14l-3.32-1.4c.36.28.73.56,1.12.83-11.58,7.76-17.88,19.34-24.81,30.39a24.71,24.71,0,0,1-12.07,10,86,86,0,0,1-18.15,5c-4.29.64-8.9-.36-13.3-1-6.62-1.05-13.19-2.46-19.78-3.75a33.87,33.87,0,0,1-5.71-1.33,36.46,36.46,0,0,0-3.57,3.68c-1,1.18-2.21,3.47.38,4.53a35.42,35.42,0,0,0,6.54,1.55c7.3,1.43,14.58,3,21.93,4.16,4.88.77,10,1.87,14.75,1.16a95,95,0,0,0,20.13-5.6A27.31,27.31,0,0,0,190,191.27c7.68-12.25,14.67-25.1,27.51-33.71C215.8,156.36,214.3,154.9,212.49,154.14Z"/><path d="M115.77,176.29a3.55,3.55,0,0,1,1.93.5c1.14.8,2.27,1.63,3.45,2.49a25.87,25.87,0,0,0-2.56,2.68c-.79,1-1.81,2.83.3,3.7h0a19.39,19.39,0,0,0,3.88,1c.49.08,1,.17,1.46.27,6,1.16,11.91,2.44,17.91,3.39,4,.63,8.16,1.53,12.05,1a78.12,78.12,0,0,0,16.44-4.57,22.34,22.34,0,0,0,10.93-9.06c6.19-9.86,11.83-20.19,22-27.21l.44-.32c-.38-.26-.75-.54-1.11-.82a14.41,14.41,0,0,0-3-2L197,146.08c.25.2.51.39.77.57l-.44.32c-.31.21-.62.43-.91.65-8.54,6.27-13.43,15.17-18.77,23.69a20,20,0,0,1-9.8,8.11,69.31,69.31,0,0,1-14.73,4.1c-3.48.52-7.22-.29-10.78-.85-5.38-.85-10.71-2-16.05-3l-1.08-.2a21.81,21.81,0,0,1-3.35-.8l-.35-.14c-1.9-.77-1-2.45-.28-3.31a24,24,0,0,1,2-2.14c-1-.74-2-1.44-3-2.14a3.2,3.2,0,0,0-1.73-.45c-5.91-.06-11.83.18-17.72-.17-4.84-.28-9.63-2-12.31-6.09-1.26-1.92-.3-5.36-.14-8.09a4,4,0,0,1,1.25-2.36c3-2.78,1.39-6.21,1.19-9.78-3.19-2.53-9.38-4.24-4.19-10.7-8.58-1.71-8.48-1.8-5.62-9.68a92.1,92.1,0,0,0,3.14-12.68,3.48,3.48,0,0,0-1-2.74c-3.22-2.9-2.41-6.37-1.83-9.94.43-2.64.43-5.33.78-8,.4-3.11.87-6.23,1.5-9.31.42-2.06.48-3.48-1.77-4.79-3.76-2.19-5.24-7.55-3.76-12.63a17.53,17.53,0,0,1,2.76-5.72,54.88,54.88,0,0,1,6.83-7.3C91,47.53,94.5,44.87,98,42.13c5.07-4,11.16-5.59,17.32-6,9.63-.7,19.32-.6,29-.86,1.62,0,3.24-.19,4.86-.34,13.54-1.31,25.53,2.13,33.91,13.23,5.5,7.29,9.48,15.65,10.47,25.08.67,6.27,1.86,12.49,2.29,18.78.74,10.52-2.05,20.42-6.58,29.8-1.62,3.35-4.1,6.29-6.2,9.4a8.24,8.24,0,0,0-1.57,6.13l.06,0a16.45,16.45,0,0,1,2.76,1.88l-.11.09c-.25.16-.49.34-.73.51l-.59.43-.27.22c-6,4.66-9.52,11.08-13.39,17.24a15,15,0,0,1-7.34,6.08,52,52,0,0,1-11,3.07c-2.61.39-5.42-.21-8.09-.63-4-.64-8-1.5-12-2.29-.62-.12-1.24-.22-1.86-.35l-.23-.05a9.61,9.61,0,0,1-1.5-.45,1.09,1.09,0,0,1-.82-1.25c-.52-.38-1-.75-1.55-1.11a2.63,2.63,0,0,0-1.41-.37c-4.79,0-9.59.14-14.37-.13-3.93-.23-7.82-1.61-10-4.95-1-1.56-.25-4.34-.12-6.57a3.22,3.22,0,0,1,1-1.91c2.42-2.25,1.13-5,1-7.93-2.6-2.05-7.62-3.44-3.4-8.68-7-1.39-6.89-1.46-4.57-7.86A72.83,72.83,0,0,0,95.41,112a2.81,2.81,0,0,0-.8-2.23c-2.62-2.35-2-5.17-1.49-8.07.35-2.13.35-4.32.63-6.47.33-2.53.71-5.06,1.22-7.56.35-1.67.4-2.83-1.43-3.89-3.05-1.77-4.25-6.12-3.05-10.24a14.26,14.26,0,0,1,2.24-4.64A45,45,0,0,1,98.27,63c2.67-2.39,5.55-4.55,8.36-6.77,4.12-3.25,9.06-4.54,14.06-4.9,7.81-.57,15.67-.49,23.51-.7,1.32,0,2.64-.15,4-.28,11-1.06,20.71,1.73,27.51,10.74a40.85,40.85,0,0,1,8.5,20.34c.54,5.09,1.5,10.14,1.86,15.24.6,8.54-1.67,16.57-5.34,24.18-1.32,2.72-3.33,5.1-5,7.63a6.53,6.53,0,0,0-1.18,5.35l-1.57-.64-.59.41-.28.21c-4.41,3.39-7,8.09-9.83,12.59a10.84,10.84,0,0,1-5.31,4.4,37.78,37.78,0,0,1-8,2.22,19.69,19.69,0,0,1-5.84-.46c-2.92-.46-5.81-1.08-8.71-1.65l-.7-.13-1.11,1.15c-1.06-.79-2-1.5-3-2.18a2,2,0,0,0-1.06-.28c-3.59,0-7.19.11-10.77-.1-3-.17-5.87-1.2-7.5-3.7-.76-1.18-.18-3.26-.08-4.93a2.37,2.37,0,0,1,.76-1.43c1.82-1.7.85-3.78.73-5.95-2-1.54-5.72-2.58-2.55-6.51-5.23-1-5.16-1.1-3.42-5.89a57.47,57.47,0,0,0,1.9-7.71,2.08,2.08,0,0,0-.6-1.67c-2-1.77-1.46-3.88-1.11-6,.26-1.6.26-3.24.47-4.85.25-1.9.53-3.8.92-5.67.25-1.25.29-2.12-1.08-2.92-2.29-1.33-3.19-4.59-2.28-7.67a10.53,10.53,0,0,1,1.67-3.49,34.24,34.24,0,0,1,4.16-4.44c2-1.79,4.16-3.41,6.27-5.07a18.73,18.73,0,0,1,10.54-3.68c5.86-.42,11.75-.36,17.63-.53,1,0,2-.11,3-.2,8.24-.8,15.53,1.3,20.63,8a30.63,30.63,0,0,1,6.38,15.25c.4,3.82,1.12,7.6,1.39,11.42.45,6.41-1.25,12.43-4,18.13a47.93,47.93,0,0,1-3.77,5.73,5,5,0,0,0-.95,3.71l-.17-.08c-.79-.34-1.57-.67-2.36-1a4.27,4.27,0,0,1,.76-3.64,43.33,43.33,0,0,0,3.34-5.06,31.69,31.69,0,0,0,3.55-16.06c-.24-3.38-.88-6.74-1.24-10.12A27.14,27.14,0,0,0,165,79.85c-4.52-6-11-7.83-18.27-7.13-.87.09-1.75.16-2.62.19-5.21.14-10.42.09-15.61.46a16.63,16.63,0,0,0-9.34,3.26c-1.87,1.47-3.78,2.91-5.55,4.49a29.82,29.82,0,0,0-3.68,3.94,9.37,9.37,0,0,0-1.49,3.08c-.79,2.74,0,5.62,2,6.8,1.21.71,1.18,1.47,1,2.58-.34,1.66-.59,3.34-.81,5-.18,1.43-.19,2.88-.42,4.3-.31,1.93-.75,3.8,1,5.36a1.88,1.88,0,0,1,.53,1.48,49.73,49.73,0,0,1-1.69,6.83c-1.54,4.24-1.6,4.29,3,5.21-2.8,3.48.54,4.4,2.26,5.77.11,1.92,1,3.77-.64,5.26A2.16,2.16,0,0,0,114,138c-.09,1.48-.6,3.33.08,4.37,1.44,2.21,4,3.13,6.63,3.28,3.17.18,6.36.06,9.54.09a1.76,1.76,0,0,1,.94.24l1.68,1.21c.47-.45,1-.88,1.42-1.34l.76-.77.9.17c2.42.47,4.83,1,7.26,1.37a16.47,16.47,0,0,0,4.87.38,30.37,30.37,0,0,0,6.66-1.85,9,9,0,0,0,4.43-3.66c2.34-3.74,4.49-7.63,8.13-10.45l.17-.13c.22-.17.45-.33.68-.49.94.38,1.87.77,2.8,1.17a5.92,5.92,0,0,1,1.12-4.43,56.83,56.83,0,0,0,4.47-6.76c3.26-6.75,5.27-13.88,4.74-21.45-.32-4.52-1.18-9-1.65-13.52a36.27,36.27,0,0,0-7.54-18c-6-8-14.66-10.46-24.4-9.52-1.17.11-2.33.21-3.5.24-6.95.19-13.93.12-20.86.62a22.29,22.29,0,0,0-12.46,4.35c-2.5,2-5,3.89-7.42,6a38.71,38.71,0,0,0-4.91,5.25,12.4,12.4,0,0,0-2,4.12c-1.07,3.65,0,7.51,2.7,9.08,1.62,1,1.58,2,1.28,3.45-.46,2.22-.8,4.46-1.09,6.71-.24,1.9-.25,3.85-.55,5.74-.42,2.57-1,5.07,1.31,7.16a2.45,2.45,0,0,1,.71,2,66.73,66.73,0,0,1-2.25,9.12c-2.06,5.67-2.14,5.74,4,7-3.74,4.64.72,5.88,3,7.7.14,2.56,1.29,5-.86,7a2.82,2.82,0,0,0-.9,1.7c-.12,2-.81,4.44.1,5.83,1.93,2.95,5.37,4.18,8.86,4.38,4.24.25,8.5.08,12.75.12a2.25,2.25,0,0,1,1.25.33l1.38,1a1,1,0,0,0,.74,1,4.75,4.75,0,0,0,.49.17c.23.07.46.14.69.19.66.16,1.34.27,2,.4,3.55.69,7.09,1.45,10.65,2,2.37.37,4.86.91,7.17.56a46,46,0,0,0,9.78-2.72,13.27,13.27,0,0,0,6.5-5.38c3.41-5.44,6.54-11.11,11.8-15.23.2-.15.39-.31.59-.45l.22-.16.75-.54-.34-.25c-.47-.36-.93-.73-1.4-1a7.49,7.49,0,0,1,1.42-5.54c1.9-2.82,4.15-5.48,5.62-8.52,4.1-8.49,6.63-17.46,6-27-.4-5.69-1.47-11.33-2.07-17-.9-8.54-4.51-16.11-9.49-22.72-7.59-10.05-18.45-13.17-30.72-12-1.46.15-2.93.27-4.4.31-8.75.25-17.53.16-26.25.79-5.58.4-11.1,1.84-15.7,5.47-3.14,2.48-6.35,4.89-9.33,7.56a48.93,48.93,0,0,0-6.18,6.61,15.6,15.6,0,0,0-2.5,5.19c-1.35,4.59,0,9.45,3.4,11.43,2,1.19,2,2.48,1.6,4.34-.57,2.79-1,5.61-1.36,8.44-.31,2.4-.32,4.84-.7,7.23-.53,3.23-1.26,6.38,1.65,9a3.19,3.19,0,0,1,.9,2.49A84.05,84.05,0,0,1,86.93,123c-2.59,7.14-2.69,7.22,5.09,8.77-4.71,5.85.9,7.4,3.8,9.69.18,3.23,1.62,6.34-1.08,8.86a3.59,3.59,0,0,0-1.14,2.13c-.14,2.48-1,5.59.13,7.34,2.43,3.72,6.76,5.26,11.15,5.52,5.33.31,10.7.09,16.05.14a2.91,2.91,0,0,1,1.57.42c.76.53,1.52,1.08,2.3,1.64a15.14,15.14,0,0,0-1,1.13c-.62.77-1.44,2.25.24,2.94l.6.22a26.3,26.3,0,0,0,3.33.73l.31.06c4.74.93,9.47,1.94,14.23,2.69,3.17.5,6.49,1.22,9.57.76a61.45,61.45,0,0,0,13.07-3.64,17.68,17.68,0,0,0,8.68-7.19c4.54-7.23,8.71-14.78,15.7-20.29l.79-.61.82-.59.54-.38c-.17-.12-.34-.24-.5-.37a13.6,13.6,0,0,0-2.76-1.85l-2.78-1.17a9,9,0,0,1,1.66-7.16c2.34-3.46,5.09-6.71,6.88-10.43,5-10.4,8.12-21.38,7.31-33.06-.49-7-1.81-13.87-2.54-20.82C197.83,58,193.42,48.7,187.32,40.62c-9.3-12.31-22.59-16.13-37.61-14.68-1.79.17-3.59.33-5.39.38-10.72.29-21.46.18-32.15,1-6.83.49-13.59,2.26-19.21,6.7-3.85,3-7.78,6-11.44,9.25A61.76,61.76,0,0,0,74,51.33a19.46,19.46,0,0,0-3.06,6.35c-1.64,5.63,0,11.57,4.17,14,2.5,1.45,2.43,3,2,5.31-.69,3.42-1.22,6.88-1.66,10.34-.39,2.93-.39,5.93-.87,8.85-.64,4-1.54,7.81,2,11a3.83,3.83,0,0,1,1.1,3,101.45,101.45,0,0,1-3.48,14.07C71,133,70.86,133.15,80.37,135c-5.76,7.16,1.11,9.06,4.66,11.87.21,4,2,7.76-1.33,10.84a4.45,4.45,0,0,0-1.39,2.62c-.18,3-1.24,6.84.16,9,3,4.56,8.28,6.44,13.66,6.75C102.66,176.49,109.22,176.23,115.77,176.29Zm33-48.9-13.32,0V106.31h0a6.66,6.66,0,0,1,13.32,0Zm11-.84c-2.11-.73-2.83-2.55-1.57-4.4a28.49,28.49,0,0,0,2.27-3.45,21.52,21.52,0,0,0,2.42-10.93c-.16-2.3-.6-4.59-.84-6.89a18.56,18.56,0,0,0-3.85-9.2c-3.07-4.07-7.46-5.33-12.43-4.85-.6.06-1.19.11-1.78.13-3.55.09-7.1.06-10.63.31a11.38,11.38,0,0,0-6.36,2.22c-1.27,1-2.57,2-3.78,3.06a19.8,19.8,0,0,0-2.5,2.68,6.4,6.4,0,0,0-1,2.1,4,4,0,0,0,1.38,4.63c.83.48.81,1,.65,1.75-.23,1.13-.4,2.28-.55,3.42-.13,1-.13,2-.28,2.93-.22,1.31-.52,2.58.67,3.65a1.26,1.26,0,0,1,.36,1,34.7,34.7,0,0,1-1.15,4.65c-1,2.89-1.09,2.92,2.06,3.55-1.91,2.37.36,3,1.54,3.93.07,1.3.65,2.56-.44,3.58a1.49,1.49,0,0,0-.46.87c-.06,1-.41,2.26,0,3a5.56,5.56,0,0,0,4.52,2.23c2.16.13,4.33,0,6.49.06a1.16,1.16,0,0,1,.64.17c.88.61,1.74,1.26,2.82,2.06-.85.88-1.5,1.59-2.18,2.27-.25.26-.52.51-.79.76-.54-.4-1.06-.78-1.58-1.14a1.39,1.39,0,0,0-.76-.2c-2.6,0-5.2.08-7.79-.07a6.68,6.68,0,0,1-5.42-2.69c-.55-.84-.13-2.35-.06-3.56a1.67,1.67,0,0,1,.55-1c1.31-1.23.61-2.74.52-4.3-1.4-1.12-4.13-1.87-1.84-4.71-3.78-.76-3.73-.8-2.47-4.26a40.25,40.25,0,0,0,1.38-5.58,1.55,1.55,0,0,0-.44-1.21c-1.42-1.27-1.06-2.8-.8-4.37.18-1.16.19-2.35.34-3.51.18-1.37.38-2.74.66-4.1.18-.91.21-1.53-.78-2.11-1.65-1-2.3-3.32-1.65-5.55a7.64,7.64,0,0,1,1.21-2.52,24.64,24.64,0,0,1,3-3.21c1.45-1.3,3-2.47,4.54-3.67a13.62,13.62,0,0,1,7.62-2.66c4.24-.31,8.5-.26,12.75-.38.72,0,1.43-.08,2.14-.15,6-.58,11.23.94,14.92,5.82a22.21,22.21,0,0,1,4.61,11c.29,2.76.81,5.5,1,8.26a25.91,25.91,0,0,1-2.9,13.12,34.27,34.27,0,0,1-2.73,4.13,3.26,3.26,0,0,0-.27,3.73Z"/><path d="M82.31,223.76V224h.12V224l-.37.06-.37-.18-.25.06-.18-.12h-.38V224c-.28.1-.43.22-.43.37l-.55-.12-.56.18-.43-.06-.56-.31-.74.43-.12-.12a.38.38,0,0,1-.43-.43l-.25-.25c-.09,0-.15.12-.19.37l-.06-.06c-.33.06-.49.14-.49.25l-.68-.31-.19.18h-.06l-.06-.06h-1L74,224V224l-.18-.06-.38.06-.3-.12-.19.18-1.48-.24h-.06l-.06.06-.07-.06h-.06q-.12,0-.12.18H71l-.3-.06-.19.12c-.14.21-.27.31-.37.31-.08.2-.35.38-.8.56l.06.68h.06l.06-.07h.06a1.57,1.57,0,0,0,.81,1l.37-.06.24.19h.19c.16-.09.25-.19.25-.31a2.45,2.45,0,0,0,.86-.31l.56.37a1.47,1.47,0,0,1,1,.86l-.07.25.25.56-.06.68V229l.06.31a1.41,1.41,0,0,0-.25.87l.19.12-.06.31.06.31-.06.31.06.06h-.06l.12,1.11-.06.37L74,233l-.12.56v.12l.12.44-.12.37a2.28,2.28,0,0,0,.12.86l-.06.25v.12l.18.74v.06c0,.09-.06.13-.18.13L74,237l-.18.31.06.49-.13.31.13.93c0,.53-.13.8-.25.8l.06.37-.12.31.12.25H73.6v.06a.55.55,0,0,1,.49.31.57.57,0,0,0,.19.43v.19l-.06.3.06.07h-.06l-.07.06q0,.18-.12.18h-.12c0-.12-.11-.18-.31-.18h-.06a.84.84,0,0,0-.5.61.52.52,0,0,1-.49-.3c-.54,0-.8.09-.8.18l-.5-.12h-.31l-.31.06c0-.21-.41-.31-1.23-.31h-.06v.31c.11.29.21.43.31.43,0,.33-.09.5-.25.5v.06l.25.31a.89.89,0,0,0,.37.8l.55.31h.06a1.85,1.85,0,0,1,1.05-.43l.13.12.31-.25h.06l.06.06-.06.31.12.19h.06l.07-.06.3.06.13-.31.24.12c0,.23.19.35.56.37a2.68,2.68,0,0,0,1.17-.74l.44.06.55.44c.12,0,.19,0,.19-.13h.06l.06.06h.25a2.16,2.16,0,0,1,.92-.37l.37.25.56-.25c.21,0,.31.09.31.25h.06l.12-.12.31.06.43-.06c0,.08.13.16.31.24l.19-.18.43.06h.06a1.17,1.17,0,0,1,.68-.25h.06l.56.37h.06v-.12h.06v.12l-.06.07v.06h.12v-.13c.09,0,.13.09.13.25h.06l.06-.06h.56l.18.18a.47.47,0,0,0,.31-.49l.31.12c0-.07.1-.13.31-.18,0-.12,0-.19.12-.19h.25l.06.19h.06l.06-.06c.09,0,.17.12.25.31l-.06.06.37.12H85c.17,0,.31-.18.43-.55h.07l.06.06c.22-.25.41-.37.55-.37v-.5l.07-.06h-.07l.07-.18a.72.72,0,0,0,.37-.62l-.07-.31a2.7,2.7,0,0,0,.37-.93v-.12c-.09,0-.21-.29-.37-.87l.07-.24-.19-.68.12-.12-.06-.19.19-1.17-.06-.06.12-.25c0-.08-.06-.13-.19-.13-.15-.76-.29-1.15-.43-1.17H86c-.29,0-.43.14-.43.31h-.13l-.06-.06V237h-.12c-.2,0-.36.25-.49.74l.12.68c-.07,0-.14.1-.19.31l.07.74-.07.31a2,2,0,0,0-.37,1.11,2,2,0,0,1,.37.8,2.07,2.07,0,0,1-.8.68v-.06c-.08,0-.12.06-.12.19h-.13c0-.21,0-.31-.12-.31l.06-.31h-.06a.41.41,0,0,0-.25.43v.25l.07.06c-.13,0-.19,0-.19.12l-.49-.12a.45.45,0,0,0-.37.43h-.13l-.43-.06-.06.06V243c-.21,0-.31-.08-.31-.25a7.28,7.28,0,0,1-1.55.25l-.92-.12-1.24.31-1-.31h-.06l-.06.06-.06-.19c-.12,0-.19,0-.19-.12h-.12l-.06.06-.25-.31c-.29,0-.43-.08-.43-.24h-.12V242a1.28,1.28,0,0,0,.24-.86v-.31l-.06-.31.19-.19v-.43l-.07-.62.07-.06-.13-.37.43-1.11v-.37a2.9,2.9,0,0,1-.43-1.36v-.12l.13-.37c-.09-.19-.17-.29-.25-.31l.06-.31c0-.12.14-.29.43-.49h.31l.56.37h.06l.12-.25a1.7,1.7,0,0,0,.87-.25l.06.06h.06l.06-.06.13.13h.06c0-.13.08-.21.25-.25l.3.12.25-.06a2.28,2.28,0,0,1,.86.43.73.73,0,0,0,.56.37v.19l-.06.37.06.18v.07l-.06.06q.12,0,.12.93v.43l-.18,1.05v.37c0,.07.12.15.37.24h.06l.06-.06V239l.12-.12H81l.06.06h.12c.12,0,.32-.37.62-1.11a1.17,1.17,0,0,0-.19-.62,2.06,2.06,0,0,0,.31-.8l-.12-.43v-.13l.12-.18v-.19l-.12-.12.06-.31.62-.55a.42.42,0,0,0-.25-.44h-.06l-.06.07c0-.37-.1-.56-.31-.56s-.23-.21-.25-.62l.06-.24a3.87,3.87,0,0,0-.18-1.55c.12-.33.27-.49.43-.49v-.19h-.12l-.06.06c0-.12,0-.18-.13-.18-.06-.49-.12-.74-.18-.74a1.39,1.39,0,0,0-.87-1.36h-.06a4.68,4.68,0,0,0-.68,1.79l.06.31-.12.25v.06l.06.06s-.09.18-.12.56l.37.49V232a1.86,1.86,0,0,1-.68,1.11l-.19-.12H78.6l-.18.12h-.07c0-.09-.08-.2-.24-.31H78l-.49.12a.56.56,0,0,1-.56-.37h-.06l-.06.07-.12-.13-.93.06h-.06c-.29,0-.43-.3-.43-.92a1.11,1.11,0,0,1,.24-.68v-.19c-.14,0-.24-.2-.3-.61v-.25a3.32,3.32,0,0,1,.37-1.05l-.19-.87.12-.37v-.06l-.06-.06h.06a.72.72,0,0,0-.18-.43l.06-.25v-.06l-.06-.06.18-.19a.54.54,0,0,1,.5-.55l.31.12h.06l.06-.06.19.06.43-.31h.25l.24.19h.06l.25-.07H78L78,226l.5-.13H79a.79.79,0,0,1,.5.25h.18l.12-.12,1,.12.74-.43c.29,0,.44.11.44.18l.31-.06.24.19h.56l.12.12.37-.12a.76.76,0,0,1,.68.86h.06l.06-.06c0,.21-.09.31-.18.31l.06.37v.06l-.06.06.12.19-.06.18.19.62-.07.25v.06l.07.06-.07.49.19.13-.06.49a3.57,3.57,0,0,1,.43,1.18l.8.37.13-.25c.13,0,.23-.19.31-.56v-.06l-.07-.06.19-.43-.06-.31q.1-1,.24-1h.07l.06.06V229a2.78,2.78,0,0,1-.31-1l.06-.31-.18-.37.18-.49-.06-.31v-.06l.06-.06-.06-.25.06-1a4.34,4.34,0,0,0-.74-1.23h-.31l-.43.06v-.06c-.41-.11-.62-.21-.62-.31l-.62.18c0,.21-.1.31-.3.31a1.1,1.1,0,0,1-.62-.55Z"/><path d="M100.21,241.33v.06l-.06.19H100v-.12l.12-.13ZM100,240H100v-.12H100Zm-.31-6.36.06.19c.06,0,.12-.08.19-.25l-.07-.31C99.76,233.24,99.7,233.37,99.66,233.61Zm.06-.86v.18l.06.07.13-.13v-.25h-.07ZM95,223.49H94.9a.63.63,0,0,1-.43-.25q-.12,0-.12.18h-.06l-.13-.12-1.23.12a.81.81,0,0,0-.5-.18h-.31l-.3.18c-.17,0-.25-.06-.25-.18l-.31.06a1.71,1.71,0,0,1-.93.37c0,.74.15,1.11.37,1.11a1.19,1.19,0,0,0,.44,1v.06c.16,0,.26-.1.3-.31l.31.07h.19q0,.3.12.3h.19q.12,0,.12-.24c.08,0,.17.12.25.31l.18-.07h.07l.06.07.8-.19h.37l.37.12.25-.24.24.06.19-.06c.41,0,.62.06.62.18v.06l.18-.06.19.19a5.57,5.57,0,0,0,.18,1.6c-.12,0-.22.18-.31.43.33.28.5.47.5.56s-.19.34-.56.43a1,1,0,0,0,.25.56l-.12.12.06.43h-.06l-.19.44L96,231l-.06.31c.16.53.3.8.43.8l-.18.8.12.5v.12l-.06.31.06.06v.06l-.06.06c.07.37.15.56.25.56a1.31,1.31,0,0,0-.19.68l.06.18a1.25,1.25,0,0,1-.24.68h.06l-.19.56.31.37-.06.25.06.49-.12.8.12.56-.18.43.18.49-.25.44.13.37-.19.8c-.41.11-.61.22-.61.31-.21,0-.31.06-.31.18l-.31-.06h-.06l-.19.13h-.06c-.08,0-.12-.07-.12-.19l-.37.5-.44-.13-.24.19H93l-.5-.13-.3.19a1.33,1.33,0,0,0-.62-.25h-.06l-.07.06a.4.4,0,0,0-.43-.24q-.12,0-.12.18h-.06l-.13-.12-.06.06-.18-.06c-.41.15-.62.36-.62.62l.18.55v.06l-.06.07c0,.25.17.46.5.61h.61l.07.06.06-.06h.06l.68.13H92l.49-.13.31.06.19-.12.74.31h.06v-.12H94l.37.24h.06a.38.38,0,0,1,.31-.31l.18.13H95a2.17,2.17,0,0,0,1.17-.43,2.71,2.71,0,0,1,.74.86l-.06.31h.06l.06.06a.39.39,0,0,0,.25-.37c.29,0,.43-.06.43-.19l.43.07.37-.07c.09,0,.13-.1.13-.3l.12.12.31-.06h.25q.09,0,.18.24c.29,0,.44.05.44.13l.18-.19c0-.22.33-.39,1-.49l.55.06h.56a1.25,1.25,0,0,1,.86.43h.07a.48.48,0,0,1,.3-.49h.25c.06,0,.13.08.19.25l-.06.06v.06l.06.06.31-.06v.12h.06v-.12h.06l.06.06-.06.19.06.24h.12a1.54,1.54,0,0,1,.5-.92h.12l.06.06V244l.19.12h.12l.19-.12h.06c.08.37.21.55.37.55a.36.36,0,0,0,.31-.24,2.13,2.13,0,0,0,.55-.87v-.06l-.06-.06.06-.37-.67-.56h-.07l-.06.06-.25-.12a.56.56,0,0,0-.55.43l-.62-.12a1.71,1.71,0,0,0-.86-.74c0-.21-.06-.31-.19-.31-.16.2-.29.31-.37.31l-.25-.13c-.37,0-.55.09-.55.19l-.19-.06a.82.82,0,0,0-.43.24l-.31-.18c-.13.49-.28.74-.43.74l-.12-.12H101q-.12,0-.12.18h-.12v-.06c-.16-.08-.32-.35-.5-.8v-.19h.37l-.18-.43c-.25-.24-.37-.4-.37-.49l.06-.25c0-.29-.09-.43-.18-.43a.52.52,0,0,0-.31.31l.06.06h-.13v-.13c-.16,0-.24.2-.24.5v.06c.34,0,.56.23.68.68-.29,0-.44.06-.44.18-.23.66-.46,1-.67,1l-.44-.43c0-.21,0-.31-.12-.31h-.12l-.31.06.06-.18-.06-.31v-.06l.06-.06-.06-.07v-.12l.43-.68-.06-.18.06-.25-.31-.37.06-.31-.06-.31.06-.06-.06-.06v-.19l.31-1v-.12h.12l-.68-.86.13-.37-.13-.19c0-.24.15-.42.44-.56l-.07-.74v-.24l-.18-.19.12-.37a1,1,0,0,1-.18-.56h.18v-.12l-.18-.18.18-.37-.06-.38V232h.12v-.37l.07-.06-.31-.81a1.32,1.32,0,0,1,.55-.86l-.12-.37v-.06h.12l-.18-.19c0-.33.1-.49.18-.49,0-.25-.14-.37-.31-.37a1.25,1.25,0,0,1,.31-.56c-.19-.6-.34-.91-.43-.93l-.25-1.17c.11-.27.21-.41.31-.43h.06l.07.06v-.06l.18.12h.06v-.18h.19a2.82,2.82,0,0,1,.92,1l-.06.37V227c.25,0,.37.14.37.43v.06c-.2,0-.31,0-.31.12v.13c.12,0,.22.12.31.37l-.06.31c-.08,0-.12-.09-.12-.25h-.13l-.06.31v.24c.13,0,.19.11.19.31a1.53,1.53,0,0,0-.25.74,2,2,0,0,1,.19.81l-.31.8.06.19.06-.07.31.13.25.31.12-.44v-.06a1.88,1.88,0,0,1-.18-.86l.18-.19a1.36,1.36,0,0,1,.62-.92v-.13c-.28-.45-.47-.68-.56-.68v-.06l.13-.12-.19-.93c.16,0,.25-.19.25-.49V227l-.06-.07h.06l-.13-1.54c.06,0,.1-.12.13-.37V225l-.06-.06.06-.37v-.07l-.06-.06c-.37-.06-.56-.18-.56-.37h-.19a.82.82,0,0,0-.55.19v-.13c-.5-.1-.74-.22-.74-.37-.33-.14-.5-.24-.5-.31h-.06l-.06.07h-.06l-.13-.31h-.06l-.06.06h-.12l-.31-.06v.06l-.06.06-.56-.06-.31.18-.24-.31A.82.82,0,0,0,95,223.49Z"/><path d="M131,232.84l.06-.06.37.12c0,.11-.17.21-.43.31l-.13-.12v-.25l.07-.06Zm4.63-8.4h-.19l-.43-.06c0,.07-.18.13-.55.19l-.19-.07-.25.07-.24-.19h-.25v.06a1.23,1.23,0,0,1-.8.5l-.25-.37-.62.18-.62-.06a1.48,1.48,0,0,0-.8.19l-.06-.07h-.31l-.18.13h-.19l-.25-.19h-.18l-.06.06c0-.08-.15-.12-.44-.12l-.49.12-.19-.06-.49.13-.49-.25-.06.06c-.5,0-.75.08-.75.25h-.24l-1-.25-.37.12-.31-.06-.19.06-.24-.06c-.07,0-.16.13-.25.37l-.37-.06h-.06l.12.49-.12.81v.06l.06.06-.25.86v.5l.13,1a1.44,1.44,0,0,1-.13.68,3.54,3.54,0,0,1,.25,1.42,3,3,0,0,1-.49,1V232c0,.29.06.43.18.43l-.12.68v.06l.12.19.87.18.12-.12c.33,0,.49-.43.49-1.3l-.12-.49v-.06l.37-.56v-.19l-.06-.06.06-.06v-.12c0-.21-.06-.33-.19-.37a1.2,1.2,0,0,0,.19-.62v-.19a1,1,0,0,0-.31-.61v-.13l.19-.61-.13-.19v-.25a2.27,2.27,0,0,1,.56-1.29v-.31l.43.12.25-.06h.06l.49.31.25-.19h.06l.19.19c.29,0,.43-.09.43-.19.37.12.58.26.62.44a1.05,1.05,0,0,1,.62-.31.47.47,0,0,1,.3-.44v.19h.07l.06-.06H129v.12l.55.06c.07,0,.13-.08.19-.24.45.15.68.32.68.49.13,0,.26.31.37.93a2.19,2.19,0,0,0-.31,1.36v.12c0,.2.06.33.19.37l-.13,1,.13.37v.12c0,.32-.09.51-.25.56l.25,1.73v.06l-.44-.06c-.14,0-.24.26-.3.8l.18.37c.25,0,.37.08.37.25v.06c-.37.22-.55.37-.55.43v.43c0,.08.08.13.24.13,0,.12,0,.18.13.18v.19l-.13.12.25.87-.31.61v.06l.06.07-.06.49a1.38,1.38,0,0,0,.19.86l-.19.44.06.06V240l.13.5v.06a1.73,1.73,0,0,0-.37.68l.06.8-.06.5-.07-.07h-.06l-.06.07c0,.08.08.12.25.12V243l-.06-.06-.38.12h-.43l-.37-.25h-.12l-.06.37h-.06l-.93-.37L127,243h-.06l-.06-.06-.68.24a1.47,1.47,0,0,0-.68-.24l-.49.24a.93.93,0,0,1-.87.62v.31l.06.06.07-.06a5.33,5.33,0,0,1,1.73,1.17l.12-.12.31.06c0,.25.16.39.49.43h.19c.33-.21.49-.4.49-.55l.74-.25h.25l.06.06.19-.12v-.12a.74.74,0,0,1,.43.18h.06l.31-.06a2,2,0,0,0,.68.49h.12c.1-.41.23-.61.37-.61h.06v.12h.44l.24.18h.13q.12,0,.24-.3l.13.12.12-.12,1.24.3c0,.34,0,.55.12.62a.58.58,0,0,1,.37-.18,1,1,0,0,1,.56-.5h.06l.06.06a3.5,3.5,0,0,1,.93-.55c0,.07.18.13.55.18l.37-.3v-.07l-.06-.06v-.06l.37-.37v-.25h-.12v-.24l.37-.07.24.07.07-.25-.31-.25c-.13,0-.21.08-.25.25l-.37-.19-.43.13-1.36-.07c-.12,0-.19,0-.19-.12-.57-.05-.86-.13-.86-.25l-.06.07-.5-.19-.06.06h-.68a.92.92,0,0,0-.31-.55l.07-.06-.13-.38.06-.18-.06-.5c0-.49.09-.74.19-.74l-.06-.74.06-.37-.25-.92.06-.5-.12-.43V237l.12-.43-.12-.5v-.12l.06-.06-.49-.5a2.52,2.52,0,0,1,.68-.8v-.43c.12,0,.18,0,.18-.13h.06l.06.07c0-.56-.18-.91-.55-1.05l.06-.5a2.58,2.58,0,0,0-.12-.86l.06-.06v-.13c0-.2-.06-.33-.19-.37l.13-.68c0-.61-.14-.92-.31-.92l.25-.81-.07-.06a1.56,1.56,0,0,0-.31-1l.19-.68-.06-.24c0-.36.2-.57.62-.62l.24.12.62-.06,1.17.31.19-.06.55.06.5-.12h.55l.19.12c0,.33.18.49.56.49a.73.73,0,0,1-.38.68v.13h.19c0-.21.2-.31.49-.31l.25-.31h.06l.13.12v.06l-.07.38.19.55-.12.37h.06c0,.21,0,.31.12.31l-.06.37a3.68,3.68,0,0,1,.18,1.24q-.1,0-.12.3v.62l-.18.81c0,.57,0,.86.12.86,0,.41.1.62.18.62h.19l.37-.25c.58,0,.87-.25.87-.74l-.19-1.24v-.12a2.5,2.5,0,0,0,.37-1l-.06-.06c-.11-.62-.24-.93-.37-.93l.06-.37-.12-2V227l.06-.06-.13-.49a1.48,1.48,0,0,1,.19-.74l-.25-.5c0-.27-.41-.52-1.23-.74v.06a4.41,4.41,0,0,0-1.48-.18Z"/><path d="M143.52,228.67c-.09,0-.13-.1-.13-.31h-.18a2.58,2.58,0,0,1-1.36.93.56.56,0,0,0-.43.19.65.65,0,0,0,.37.43c.16.45.37.68.62.68l.24-.06.25.06.56.31.49-.07H144l.06.07.68-.25c0,.08.06.12.19.12l.31.68c.2,0,.31,0,.31.13.57.21.86.46.86.74a.36.36,0,0,1-.31.24v.13l.06.06h-.12l-.06-.06v.06l-.06.06v.06a1.68,1.68,0,0,0,.24,1l-.37.62a1.12,1.12,0,0,0,.31.61v.38l-.06.3.06.07c0,.29-.06.46-.18.49l.06.37v.06l-.06.06a1.36,1.36,0,0,1,.37.75l-.25,1.66.25.43v.19l-.25.93v.37l.12.12v.06l-.06.06v.25a.49.49,0,0,0,.37.25c.07.45.24.68.5.68,0,.35.26.66.8.92h.12l.13-.12.18.06.25-.06h.06l.68.25a.68.68,0,0,0,.49.31l.37-.25.74.86H151c0-.12.1-.2.31-.24l.18.12.56-.12h.37c.17-.58.32-.87.43-.87s.21-.24.62-.49h.06l.06.06c.15,0,.35-.17.62-.49l.37.12.19-.06c.31-1,.56-1.49.74-1.49.33.24.49.47.49.68v.07l-.12.12c0,.33,0,.49-.13.49,0,.33.13.5.25.5.23.59.39.9.5.92h.43l.06-.06.74.25L158,244l.74.49c.16,0,.25,0,.25-.12l.86-.19.25.13c.16,0,.39-.15.68-.44.29,0,.43-.43.43-1.29,0-.18-.1-.28-.31-.31a.87.87,0,0,0-.8-.31l-.19.12h-.12q0-.18-.12-.18h-.07L159,242l-.19-.06-.12.12h-.13l-.06-.31h-.12v.13H158l-.06-.19-.31.06c-.45-.06-.68-.16-.68-.31v-.12l.12-.19V241a2.63,2.63,0,0,1-.31-1l.13-.38c.26,0,.46-.39.61-1.17l-.37-.92.13-1.3-.06-.19.12-.86V235a1.12,1.12,0,0,0-.25-.55l.06-.31-.18-.93a5,5,0,0,1,.49-1.3l-.18-1.23v-.31l.12-.19V230l-.31-.49c0-.29-.08-.44-.24-.44v.06l-.37-.12-.44.31h-.49a1.24,1.24,0,0,0-.68-.37h-.06l-.06.06v-.06l-.13-.12-.8.12c-.33-.09-.49-.22-.49-.37h-.07l-.24.93a.28.28,0,0,1-.31-.31h-.13l-.49.31a.91.91,0,0,1-.18.55l.06.19c.24,0,.37,0,.37.12l.06.06c.49,0,.74.14.74.25l.56-.12v.06l.06.06.49-.12.31.37h.12l.38-.07.3.07v.18a2.69,2.69,0,0,0,.44,1l-.07.18a2.24,2.24,0,0,0,.25.93,1.39,1.39,0,0,0-.43.87v.12a3.05,3.05,0,0,1,.43,1.23c-.09,0-.17.33-.25,1a1.07,1.07,0,0,1,.37.74.66.66,0,0,0-.3.62,1.46,1.46,0,0,0-.37.68c0,.34-.23.55-.68.62-.06.6-.16.91-.31.92-.33.42-.6.62-.81.62-.49,0-.74.1-.74.31-.24,0-.37.06-.37.18l-.12-.12-.25.06c-.1.37-.22.56-.37.56l-.18-.06c-.14-.29-.26-.44-.37-.44l-.07.07c0,.27-.26.54-.8.8h-.06l-.06-.06-.06.06h-.56c0-.21,0-.31-.12-.31s-.25-.21-.74-.25a1.29,1.29,0,0,1-.68-.74c-.16,0-.3-.18-.44-.55l.07-.62-.07-.49v-.07l.07-.06-.13-.86c.08,0,.17-.27.25-.81v-.06l-.12-.49v-.06l.18-.31-.06-.68.06-.43-.06-.07.06-.06c-.25-.24-.37-1.05-.37-2.41l-.06-.18h.06a4.55,4.55,0,0,0,.31-1.79c-.07-.29-.13-.43-.19-.43-.08-.42-.16-.62-.24-.62a2,2,0,0,0-.31-.74l-.37.18a.77.77,0,0,1-.5-.24l-.12.12-.37-.12c-.07-.46-.17-.68-.31-.68h-.06c-.08,0-.14.2-.19.61l-.74-.06c-.33-.21-.49-.42-.49-.62h-.19C143.6,228.09,143.52,228.29,143.52,228.67Zm11.24-9.95c-.11.32-.23.49-.37.49-.33,0-.5.1-.5.31-.33.26-.49.42-.49.49a.85.85,0,0,0-.43.68l-.25.37a.5.5,0,0,0-.25.43h-.37l.06.19c-.12.29-.29.43-.49.43v.31c0,.12-.08.19-.25.19l-.25.3c-.16.29-.3.44-.43.44-.11.7-.23,1.05-.37,1.05a1.21,1.21,0,0,1-.31.61l.13.5v.18l1,.44c.37-.13.56-.25.56-.38a3.29,3.29,0,0,0,1-.3l.55-.25c.27-.41.46-.62.56-.62h.06l.06.06.25-.12.25.06.24.31.38-.18v-.07l-.07-.06-.18.06c-.13,0-.19,0-.19-.12v-.12l.5-.31.06.06.25-.31c.29,0,.62-.41,1-1.23a2,2,0,0,0,.93-1l-.12-.74a.74.74,0,0,0,.18-.44v-.06a1.27,1.27,0,0,0-.31-.62,10.58,10.58,0,0,1-1.85-1.17Z"/><path d="M167.69,243.15l.07.19-.19.12v-.18Zm13.53.13v.06c.06.33.14.49.24.49s.18-.14.25-.43c-.11-.25-.21-.37-.31-.37Zm-1.86-1.79v.12l-.06.06-.12-.12v-.25Zm-.37-.81v.19l-.12-.12v-.07Zm-9.2-.49v.18h-.06l-.06-.06.12.44-.12.12-.43-.56v-.12h.12q0,.18.12.18c.09,0,.13-.08.13-.24Zm-.24-.12h-.13V240h.13Zm9.2-1.42h.12l.06.06-.12.31.12.24-.06.25.25.8-.06.25a.39.39,0,0,0-.31.12l-.06.07v-.31h-.07l-.06.06-.12-.13v-.06l.18-.24v-.13l-.12-.37.06-.37-.06-.18C178.59,238.77,178.68,238.65,178.75,238.65Zm-.06-.07h-.07v-.12h.07Zm-10.5-4h-.06v-.12h.06Zm1.6-1.42c.08,0,.18.12.31.37s.08.31.25.31v.06l-.06.06h-.07l-.06-.06h-.06L170,234a1,1,0,0,0,.31.62l-.19.68-.18-.06-.31.06h-.06l.06.93-.12.18c.09,0,.17.12.24.37l-.12.31.12.19-.18.49.12.25-.06.18-.06-.06h-.06l-.07.06c0,.21,0,.31-.12.31l.06.19q0,.18-.12.18l-.25-.43.13-.19-.19-.74.06-.06v-.62c.13,0,.19-.06.19-.18a1.8,1.8,0,0,0-.19-.87l.06-.43-.12-.43.25-.12c0-.2.16-.41.49-.62v-.06l-.25-.31v-.13l.07-.06h-.07l.07-.31q.18,0,.18-.12Zm.37,0H170V233h.12Zm1.55-1c-.24,0-.4.23-.5.68l.06.06c.46-.12.68-.33.68-.61l-.06-.19h-.12Zm7.41.43v.25a.62.62,0,0,1,.31.37v.06l-.07.07h.07l-.07.24.07.25-.13.49c0,.3.06.47.19.5s.24-.25.24-.74v-.44l-.12-.49s.09-.12.12-.37c-.11-.41-.23-.62-.37-.62l.07-.37-.13-.12A2.77,2.77,0,0,1,179.12,232.59Zm-.31-1.73h.06c0,.29.09.44.19.44l-.07.31v.06h.13c.07,0,.15-.13.24-.37-.15-.46-.27-.68-.37-.68S178.87,230.7,178.81,230.86Zm-10.93-2.53c-.32,0-.51-.08-.56-.24l-.12.12-.31-.06h-.31l-.06.06-.06-.06-.25.18h-.43v-.12h-.25l-.74.43v.19l-.12.49v.19l.18.06.19-.25.37.31v.12h-.13v.19l.44.31.18-.13H166l.07.07q0,.18.12.18a1.27,1.27,0,0,0,.74.31h.25a1.23,1.23,0,0,1,.86-.31l.19.12.06.07h.06c0,.37-.08.55-.18.55l.06.37a3.51,3.51,0,0,1-.68,1.61v.06l.25.37c0,.09-.11.22-.31.37v.25l.06.06c.16,0,.25.06.25.19l-.07.06c0,.12.11.18.31.18h.06l-.3.74v.06l.24.37v.81l-.12.49v.43l-.12.13.06.37-.13.37.13.18-.13.44.13.24-.06.44.12.3v.07l-.06.06.06.49c-.12,0-.19.1-.19.31v.31a2.33,2.33,0,0,0-1,.31,1.41,1.41,0,0,1-.87-.19l-.12.13h-.06l-.07-.07h-.06l-.12.13v.31c-.37.22-.56.43-.56.61v.07l-.18-.07c-.19,0-.33.21-.43.62l.12.56h.31l.18-.19.43.06.25-.12h.06v.12a1.73,1.73,0,0,1,.81.31h.43c.2,0,.33.06.37.19l.37-.13.31.07.06-.19.93.19c0,.28.06.43.18.43h.06l.44-.31.06.06h.12l.06-.25v-.06l.62.25.19-.12h.18l.12.12c.42,0,.62-.08.62-.19l.31.07.12-.13.19.06.37-.18.43.18v-.06l.19.06c.47-.17.72-.33.74-.49a1.59,1.59,0,0,0-.31-.86l-.31.06c0-.25-.16-.37-.49-.37h-.06l-.07.06-.12-.19-.25.07c-.26,0-.41-.09-.43-.25h-.06l-.19.25v.06l-.18-.06h-.06l-.07.06-.37-.25h-.06l.06-.43-.37-1.11c0-1,.13-1.49.25-1.49l-.12-1.11.06-.24-.12-.37.12-.75v-.12l-.19-.31.07-.06v-.12a.43.43,0,0,0-.25-.44l.25-.86v-.25h-.13v-.18l.19-.43c.29-.16.43-.34.43-.56L171,233c-.25,0-.37-.08-.37-.24l.12-.25-.06-.06.18-.31a3.69,3.69,0,0,0,.93-1.11l.12.12c.21,0,.31-.06.31-.18l.25.18v.06l-.06.07h.06l-.12.37v.12l.31.06h.06c.49-.58.78-.86.86-.86l.37.06c.13,0,.19-.13.19-.37s.18-.34.55-.62l.62.31c.39,0,.62,0,.68.12l.19-.18c.41.11.61.3.61.55a1,1,0,0,1,.56.68l-.06.43.49.93v.06c-.16,0-.25.09-.25.19v.06l.07.06-.13.13v.06l.06.06.19-.06h.06a2.21,2.21,0,0,1-.25.86l.07.5-.13.24.13.93-.13.18.19.37-.06.31.06.56-.06.31c0,.16.16.29.49.37v.18H178l.06.19v.18h-.37l-.06.07.06.18-.13.5c.09,0,.13.1.13.3l-.19.44c0,.12,0,.18.13.18l-.13.37.13.25c0,.12,0,.18-.13.18h-.06l-.06-.06c-.25.15-.37.27-.37.37-.37.23-.56.37-.56.43l-.37-.06a1.78,1.78,0,0,1-.8.31l-.5.62.13.49v.13c-.13,0-.19.1-.19.31h.13l.31-.07v.07l.68.49h.06l.37-.12h.06l.06.06.25-.13h.06l.06.07.49-.07.44.25.18-.06h.06l.07.06h.06l.06-.06a.76.76,0,0,0,.62.25h.06l.43-.19.19.06.18-.31c.58-.13.87-.27.87-.43l.18.06c.12,0,.24-.2.37-.61h.06l.07.06h.06a.93.93,0,0,1,.12-.5l-.18-.43-.44.06V242c-.45,0-.68-.21-.68-.62l.07-.55v-.19a.74.74,0,0,0-.19-.43V240l.06-.24-.12-.74.06-.25-.06-.49c0-.08.1-.12.31-.13h.06l-.31-.62.06-.24v-.56l-.12-.18v-.13l.06-.24-.06-.25v-.19c-.13,0-.19-.06-.19-.18l.06-.06V235h-.12l-.06.19a.63.63,0,0,0-.43.12v.06l.06.06-.12.37.12.13v.18a2.85,2.85,0,0,1-.25,1.12l.13.49v.12H179l-.24.31c-.22-.05-.47-.34-.74-.86V237l.12-.31c.21,0,.35-.16.43-.49a4.37,4.37,0,0,0,.31-1.42l-.37-.62c.12-.45.27-.68.43-.68l-.12-.37.06-.25-.37-.86.12-.19-.3-.31.06-.3-.13-.25.07-.19-.07-.37.13-.12-.19-.68h-.25a.34.34,0,0,1-.37-.25c-.7-.41-1-.7-1-.86h-.12l-1.17.18-.44-.31-.06.07-.18-.07-.19.07h-.06l-.06-.07-.06.19h-.13a1.86,1.86,0,0,0-1.05.56l-.24-.07h-.06l-.81.44-.12-.13h-.06a1.49,1.49,0,0,1-.56.68.71.71,0,0,1-.68.43h-.12l-.06-.06.06-.55a4.05,4.05,0,0,0-1-.56h-.12l-.07.06v-.06l.07-.06v-.06l-.07-.31h-.18l-.06.06a.77.77,0,0,1-.25-.49v-.19c-.15,0-.26-.1-.31-.31C168,228,167.88,228.11,167.88,228.33Z"/><path d="M192.44,242.07v.19l-.12-.13v-.06Zm1.17-6.36-.49.31v.19l.43-.13.19.13.62-.19a.62.62,0,0,0-.56-.37Zm-.06-.37.06.06.07-.06h.06l.06.06v-.12l-.12-.12h-.13Zm-7.59-.49H186l.31.18c0,.25-.19.37-.56.37l-.31-.12C185.46,235.2,185.63,235.05,186,234.85Zm.12-.31H186v-.12h.06Zm.31-.25.06.25h-.06l-.12-.12v-.13Zm0-2.59h-.12v-.06h.12Zm5.49-2.35-.61-.12c0,.07-.19.15-.56.25l-.74-.19-.43.06h-.06l-.07-.06v.06l-.06.06a.17.17,0,0,0-.18.19l-.31-.06h-.06l-.31.24h-.06l-.37-.18v.06l-.31-.06-.81.62c0,.2,0,.31-.12.31l.06.18-.43.31a.82.82,0,0,0-.68.31v.24l.31-.06v.31l-.06.06-.19-.06h-.12a.53.53,0,0,1-.49.31.61.61,0,0,1-.31.56c-.17.57-.31.86-.44.86l.07.31-.07.37.07.56-.13.24.13.37h-.07l.25,1.24c-.07,0-.11.1-.12.31v.24l.12.5-.06.18c0,.37.1.56.19.56h.06l-.06.62a2,2,0,0,1,.43,1.23h.12c0,.33,0,.5.12.5l.07.06.3-.06.13.3-.06.25v.06h.24c0,.17,0,.25.13.25s.32.21.55.62l.31-.06a1.16,1.16,0,0,1,.31.74c.25,0,.43.16.56.49a1.25,1.25,0,0,1,.8.43l.31-.06.24.06.44-.06.06.06c.7.06,1.05.18,1.05.37l.49-.18.43.06.44-.12v.06l.37-.19c.37,0,.55-.06.55-.18h.07l.12.12h.06l.06-.06h.13l.49.19a.38.38,0,0,1,.31-.19l.74-.49.25.12a2.12,2.12,0,0,0,.74-1l.49-.25c.87-.72,1.3-1.21,1.3-1.48v-.06l-.06-.06a2.46,2.46,0,0,0,.37-.87v-.06c0-.2-.06-.33-.19-.37l.13-.18V239l-.13-.37-.12-.24c-.22,0-.34-.08-.37-.25h-.43l-.31.06-.13-.24q-.24,0-.24.18H196l-.06.06-.06-.06h-.13v.12h.13v.25l-.19.49.19.19v.12a12,12,0,0,1-1.05,1.49l-.06-.07c-.59,0-.94.17-1,.5l-.62-.06-.31.12-.12-.12h-.07l-.06.06c-.08.49-.16.74-.24.74h-.07l-.24-.19h-.19a3.36,3.36,0,0,1-1.36.44h-.06a1.4,1.4,0,0,0-.74-.68c0,.08-.1.12-.31.12l-.68-.49c-.41-.26-.62-.43-.62-.5-.21-.05-.44-.3-.67-.74h-.07l-.06.06a.41.41,0,0,0-.31-.18v-.13H187v-.06l-.5-1.42v-.06l.06-.06c-.12-.54-.22-.8-.3-.8l.12-.13-.06-.31h.37v-.3l.06.06.86-.31.19.12h.06l.06-.06,1,.19.93-.31v.12H190l.31-.19c0,.07.08.13.25.19l.37-.12.06.18.19-.06.24.12h.31a2.8,2.8,0,0,1,1-.31c0-.24.08-.37.25-.37v-.12l-.19-.25a.72.72,0,0,1-.49-.31h-.06l-1.8.38-.55-.38h-.06c-.25,0-.37.09-.37.25-.21,0-.33-.08-.37-.25l-.44.07c-.12,0-.18,0-.18-.13a1.56,1.56,0,0,0-.8.37c-.17,0-.25-.08-.25-.18a1.74,1.74,0,0,1-.87-.56l.13-.12-.19-1.11.06-.37-.06-.31c0-.15.15-.25.43-.31a2,2,0,0,1,.44-.87l.06-.06c.49-.27.74-.48.74-.61a1,1,0,0,0,.74-.37H189l.25.18h.12l.06-.06.07.06h.06q0-.18.12-.18h.06v.12h.13a3.31,3.31,0,0,0,1-.8l.68.18v.06l-.06.06c.33-.07.5-.15.5-.24l.12.12.31-.06q.12,0,.12.18v.07l.19-.07.24.13h.13l.55-.25.25.06h.19c0,.21.16.31.49.31h.31c0,.25.16.43.49.56,0,.16,0,.24.13.24a3,3,0,0,0,.43,1.12c0,.53.15.8.37.8l.18.43-.18.8-.06-.06c-.11,0-.19.15-.25.43h-.12l-.07-.06c0,.13-.12.19-.37.19l-.43.31a.87.87,0,0,1-.49.31.74.74,0,0,0,.25.49c.49.06.74.14.74.25a.92.92,0,0,0,.43-.31h.31q.09,0,.18.24l.06-.06.37.13h.07l.06-.07a1.62,1.62,0,0,0,.68.31h.06l.18-.12c0-.29.19-.47.56-.56l-.12-.61.06-.74-.12-.13.24-.37-.24-.74v-.06l-.19.06H198l.12-.49v-.07H198c0-.33-.23-.58-.68-.74a.9.9,0,0,0-.68-.86,7.14,7.14,0,0,0-1.17-.93l-.56.13c-.41-.17-.62-.33-.62-.5-.45-.33-.68-.53-.68-.62l-.18.13-.31-.19-.25.06h-.06l-.06-.06A2.32,2.32,0,0,0,191.88,229.35Z"/><path d="M211.72,241.33v.06l-.06.19h-.12v-.12l.12-.13Zm-.24-1.36h.06v-.12h-.06Zm-.31-6.36.06.19c.06,0,.12-.08.18-.25l-.06-.31C211.27,233.24,211.21,233.37,211.17,233.61Zm.06-.86v.18l.06.07.12-.13v-.25h-.06Zm-4.69-9.26h-.13a.61.61,0,0,1-.43-.25q-.12,0-.12.18h-.06l-.13-.12-1.23.12a.81.81,0,0,0-.5-.18h-.31l-.31.18q-.24,0-.24-.18l-.31.06a1.71,1.71,0,0,1-.93.37c0,.74.15,1.11.37,1.11a1.19,1.19,0,0,0,.44,1v.06c.16,0,.26-.1.3-.31l.31.07h.19q0,.3.12.3h.19q.12,0,.12-.24c.08,0,.17.12.25.31l.18-.07h.06l.07.07.8-.19h.37l.37.12.25-.24.24.06.19-.06c.41,0,.62.06.62.18v.06l.18-.06.19.19a5.57,5.57,0,0,0,.18,1.6c-.12,0-.22.18-.31.43.33.28.5.47.5.56s-.19.34-.56.43a1,1,0,0,0,.25.56l-.12.12.06.43h-.06l-.19.44.06.37-.06.31c.15.53.3.8.43.8l-.18.8.12.5v.12l-.06.31.06.06v.06l-.06.06c.07.37.15.56.25.56a1.31,1.31,0,0,0-.19.68l.06.18a1.25,1.25,0,0,1-.24.68h.06l-.19.56.31.37-.06.25.06.49-.12.8.12.56-.18.43.18.49-.25.44.13.37-.19.8c-.41.11-.61.22-.61.31-.21,0-.31.06-.31.18l-.31-.06h-.06l-.19.13h-.06c-.08,0-.12-.07-.12-.19l-.38.5-.43-.13-.24.19h-.25l-.5-.13-.31.19a1.27,1.27,0,0,0-.61-.25H203l-.07.06a.4.4,0,0,0-.43-.24q-.12,0-.12.18h-.06l-.13-.12-.06.06-.18-.06c-.42.15-.62.36-.62.62l.18.55v.06l-.06.07c0,.25.17.46.5.61h.61l.07.06.06-.06h.06l.68.13h.06l.49-.13.31.06.19-.12.74.31h.06v-.12h.25l.37.24H206a.38.38,0,0,1,.31-.31l.18.13h.07a2.17,2.17,0,0,0,1.17-.43,2.84,2.84,0,0,1,.74.86l-.06.31h.06l.06.06a.39.39,0,0,0,.25-.37c.29,0,.43-.06.43-.19l.43.07.37-.07c.09,0,.13-.1.13-.3l.12.12.31-.06h.25q.09,0,.18.24c.29,0,.43.05.43.13l.19-.19c0-.22.33-.39,1-.49l.55.06h.56a1.25,1.25,0,0,1,.86.43h.07a.48.48,0,0,1,.3-.49h.25c.06,0,.12.08.19.25l-.07.06v.06l.07.06.31-.06v.12h.06v-.12h.06l.06.06-.06.19.06.24H216a1.54,1.54,0,0,1,.5-.92h.12l.06.06V244l.19.12H217l.19-.12h.06c.08.37.2.55.37.55a.36.36,0,0,0,.31-.24,2.13,2.13,0,0,0,.55-.87v-.06l-.06-.06.06-.37-.68-.56h-.06l-.06.06-.25-.12a.56.56,0,0,0-.55.43l-.62-.12a1.75,1.75,0,0,0-.86-.74c0-.21-.07-.31-.19-.31-.16.2-.29.31-.37.31l-.25-.13c-.37,0-.55.09-.55.19l-.19-.06a.82.82,0,0,0-.43.24l-.31-.18c-.13.49-.28.74-.43.74l-.12-.12h-.07q-.12,0-.12.18h-.12v-.06c-.16-.08-.32-.35-.5-.8v-.19h.37l-.18-.43c-.25-.24-.37-.4-.37-.49l.06-.25c0-.29-.09-.43-.19-.43a.53.53,0,0,0-.3.31l.06.06H211v-.13c-.16,0-.24.2-.24.5v.06c.34,0,.56.23.68.68-.29,0-.44.06-.44.18-.23.66-.46,1-.68,1l-.43-.43c0-.21,0-.31-.12-.31h-.12l-.31.06.06-.18-.06-.31v-.06l.06-.06-.06-.07v-.12l.43-.68-.06-.18.06-.25-.31-.37.06-.31-.06-.31.06-.06-.06-.06v-.19l.31-1v-.12h.12l-.68-.86.13-.37-.13-.19c0-.24.15-.42.44-.56l-.07-.74v-.24l-.18-.19.12-.37a1,1,0,0,1-.18-.56h.18v-.12l-.18-.18.18-.37-.06-.38V232h.12v-.37l.07-.06-.31-.81a1.32,1.32,0,0,1,.55-.86l-.12-.37v-.06h.12l-.18-.19c0-.33.1-.49.18-.49,0-.25-.14-.37-.31-.37a1.16,1.16,0,0,1,.31-.56c-.19-.6-.34-.91-.43-.93l-.25-1.17c.11-.27.21-.41.31-.43h.06l.07.06v-.06l.18.12h.06v-.18h.19a2.82,2.82,0,0,1,.92,1l-.06.37V227c.25,0,.37.14.37.43v.06c-.2,0-.31,0-.31.12v.13c.12,0,.22.12.31.37l-.06.31c-.08,0-.12-.09-.12-.25H211l-.06.31v.24c.13,0,.19.11.19.31a1.53,1.53,0,0,0-.25.74,2.17,2.17,0,0,1,.19.81l-.31.8.06.19.06-.07.31.13.25.31.12-.44v-.06a2,2,0,0,1-.19-.86l.19-.19a1.36,1.36,0,0,1,.62-.92v-.13c-.28-.45-.47-.68-.56-.68v-.06l.13-.12-.19-.93c.16,0,.25-.19.25-.49V227l-.06-.07h.06l-.13-1.54c.05,0,.1-.12.13-.37V225l-.06-.06.06-.37v-.07l-.06-.06c-.38-.06-.56-.18-.56-.37H211a.82.82,0,0,0-.55.19v-.13c-.5-.1-.74-.22-.74-.37-.33-.14-.5-.24-.5-.31h-.06l-.06.07h-.06l-.13-.31h-.06l-.06.06h-.12l-.31-.06v.06l-.06.06-.56-.06-.31.18-.24-.31A.82.82,0,0,0,206.54,223.49Z"/></g></svg>