<svg id="Capa_1" data-name="Capa 1" xmlns="http://www.w3.org/2000/svg" viewBox="0 0 280 280"><defs><style>.cls-1{fill:#9ad3d1;}.cls-2{opacity:0.7;}</style></defs><title>OHANA</title><rect class="cls-1" width="280" height="280"/><g class="cls-2"><path d="M87.53,157.26a2,2,0,0,1-.57-1.45V107.38a2,2,0,1,1,4,0v22.17h33.92V107.38a1.95,1.95,0,0,1,2-2,2,2,0,0,1,1.41.57,1.9,1.9,0,0,1,.6,1.44v48.43a1.92,1.92,0,0,1-.6,1.45,2,2,0,0,1-1.41.57,2,2,0,0,1-2-2V133.17H91v22.64a2,2,0,0,1-2,2A2,2,0,0,1,87.53,157.26Z"/><path d="M177,155.81a1.9,1.9,0,0,1-.61,1.41,1.94,1.94,0,0,1-1.41.61,1.91,1.91,0,0,1-1.88-1.28l-5-11.89H140.76l-5,11.89a1.83,1.83,0,0,1-1.88,1.28,1.89,1.89,0,0,1-1.48-.61,2.08,2.08,0,0,1-.53-1.41,1.85,1.85,0,0,1,.2-.87l20.35-48.16a2,2,0,0,1,2-1.41,2,2,0,0,1,1.95,1.41l20.42,48.16A2,2,0,0,1,177,155.81ZM142.31,141h24.25L154.4,112Z"/><path d="M180.09,157.26a2,2,0,0,1-.57-1.45V107.38a1.95,1.95,0,0,1,2-2,2,2,0,0,1,1.54.67l34.12,44.4V107.38a1.92,1.92,0,0,1,.58-1.44,2,2,0,0,1,1.44-.57,2,2,0,0,1,1.41.57,1.9,1.9,0,0,1,.6,1.44v48.43a1.92,1.92,0,0,1-.6,1.45,2,2,0,0,1-1.41.57,1.89,1.89,0,0,1-1.48-.61l-34.19-44.47v43.06a2,2,0,0,1-.57,1.45,2.12,2.12,0,0,1-2.89,0Z"/><path d="M269.26,155.81a1.93,1.93,0,0,1-.6,1.41,2,2,0,0,1-1.41.61,1.89,1.89,0,0,1-1.88-1.28l-5-11.89H233.06l-5,11.89a1.84,1.84,0,0,1-1.88,1.28,1.89,1.89,0,0,1-1.48-.61,2,2,0,0,1-.54-1.41,2,2,0,0,1,.2-.87l20.35-48.16a2,2,0,0,1,1.95-1.41,2,2,0,0,1,1.95,1.41l20.42,48.16A2,2,0,0,1,269.26,155.81ZM234.6,141h24.25l-12.16-29Z"/><path d="M77.73,117.89a25.72,25.72,0,0,0-9.67-9.67A26.5,26.5,0,0,0,57,104.8h0a1.36,1.36,0,0,0-.29,0,2,2,0,1,0,0,4A22.69,22.69,0,0,1,66,111.71a21.75,21.75,0,0,1,8.23,8.23,24.21,24.21,0,0,1,0,23.31A21.68,21.68,0,0,1,66,151.48a23.06,23.06,0,0,1-11.62,3h-.1v4h.1A27,27,0,0,0,68.06,155a25.65,25.65,0,0,0,9.67-9.67,28.37,28.37,0,0,0,0-27.41ZM58.27,105.52l-.1-.11Zm-.91-.62,0,0Zm.66.37-.11-.08Zm-.31-.22-.07,0Zm-1,3.78h0a2,2,0,0,0,2-2v-.17c0,.06,0,.11,0,.17A2,2,0,0,1,56.7,108.83Zm1.69-3.14a.6.6,0,0,1,.09.15A1.19,1.19,0,0,0,58.39,105.69Zm.12.21a2.55,2.55,0,0,1,.13.29A2.55,2.55,0,0,0,58.51,105.9Zm.14.35a1.83,1.83,0,0,1,.07.32A1.83,1.83,0,0,0,58.65,106.25Z"/><path d="M42.7,151.48a21.83,21.83,0,0,1-5-3.85,5.58,5.58,0,0,1,.51,1.46c.34,1.69.14,3.42-.75,3.77A23,23,0,0,0,40.65,155a27.1,27.1,0,0,0,13.64,3.53v-4A23.18,23.18,0,0,1,42.7,151.48Z"/><path d="M53.91,106.81a2,2,0,0,0-2-2,2,2,0,0,0-.35,0,26.63,26.63,0,0,0-10.89,3.4A25.8,25.8,0,0,0,31,117.89a27,27,0,0,0-3.53,13.67,29.63,29.63,0,0,0,.47,5.31h0v0a2.06,2.06,0,0,0,4.12,0,2,2,0,0,0-.15-.74h0a25.67,25.67,0,0,1-.41-4.61,23.06,23.06,0,0,1,3-11.62,21.82,21.82,0,0,1,8.23-8.23A22.76,22.76,0,0,1,52,108.83h-.11A2,2,0,0,0,53.91,106.81ZM28.54,135.44h0Zm-.14.15h0Zm1.37-.71h0Zm-1.09.45,0,0Zm.15-.12,0,0Zm.17-.1.06,0Zm.18-.08.08,0Zm.19-.07.09,0Zm.19-.05.12,0Zm1.35.18-.05,0Zm-.3-.12h0Zm-.28-.07h0Zm1.05.51v0Zm-.23-.18h0Z"/><path d="M47.24,143.77a6.48,6.48,0,0,0-1.08-1.43,2.14,2.14,0,0,1-.52-2.81c.64-1.22-.53-2.9-2.13-3a10.53,10.53,0,0,0-3,.34c-1.12.24-2.21.64-3.32,1a3.61,3.61,0,0,1-.44.06h-.2a.25.25,0,0,1-.25-.1,1,1,0,0,1,.59-1.48,11.35,11.35,0,0,1,2.38-.59c1.48-.25,3-.4,4.44-.7a4.08,4.08,0,0,0,1.45-.83,1.06,1.06,0,0,0,.11-1.82c-.89-.82-1.6-1.51-.62-2.83.54-.71-.26-1.68-1.15-1.71a24.27,24.27,0,0,1-3-.23,4.15,4.15,0,0,0-3.28.81A10.55,10.55,0,0,0,33,135.72h0a1.9,1.9,0,0,0,0,.81c.09.22.1-.08.32-.44l.1-.15,0-.05h0c.37-.55.73-1.11,1.14-1.62a12.38,12.38,0,0,1,1.78-2,1.21,1.21,0,0,1,1.81.24,1.46,1.46,0,0,1-.13,2.05c-.66.62-1.38,1.16-2.06,1.76a8.4,8.4,0,0,0-1.26,1.27,1,1,0,0,0-.07.92c.1.18.55.23.85.23.75,0,1.5-.14,2.24-.1a1.23,1.23,0,0,1,1.2,1.73,2.41,2.41,0,0,0,.12,2.15h0s.68,1.11.07,1.61l-.1.06,0,0-.09,0-.1,0-.21.08a1.26,1.26,0,0,1-.71,0,14.88,14.88,0,0,1-2.15-1.31c-.58-.38-1.14-.78-1.71-1.17h0l0,0h0c-.08-.06-.22-.12,0,.18l4.38,5.23a12,12,0,0,0,.86.89c1.52,1.41,2.34,1.47,4.13.44.88-.5,1.79-1,2.7-1.4A2.56,2.56,0,0,0,47.24,143.77Z"/><path d="M25.88,142.68c.57-.18,1-.19,1.1-.65,0-.21-.07-.29-.19-.31h-.1a1.21,1.21,0,0,0-.37.08,16.6,16.6,0,0,0-2.43.49A23.94,23.94,0,0,0,21,143.49c-.78.35-1.47.48-1.85-.5a1.44,1.44,0,0,1,1.1-1.89c1-.14,1.27-.44.71-1.38s.34-1.12.88-1.19a6.68,6.68,0,0,1,3.89.62c.16.09.28.18.33.08s0-.12-.05-.17h0a.44.44,0,0,0-.1-.09h0c-2.46-2.17-6.38-3.47-9.27-2.36-1.86.72-2.21,1.32-2,3.26a1.18,1.18,0,0,1-.64.94,4.6,4.6,0,0,0-2.91,1.93l-.24.64a3.81,3.81,0,0,0,2.51,3,1.91,1.91,0,0,1,.82.82,2.77,2.77,0,0,0,4.31,1.16,20.25,20.25,0,0,0,2-1.84,14.59,14.59,0,0,1,5.36-3.86Z"/><path d="M33.45,143.41h0l-.19-.12-.08-.06-.13-.07a2.35,2.35,0,0,0-1-.29h0a.23.23,0,0,0-.22.23.14.14,0,0,0,0,.06h0v0h0a11.74,11.74,0,0,1,.89,1.47c.44.92,1.06,1.94.38,2.85a1.58,1.58,0,0,1-1.93.26c-.2-.08-.35-.15-.61-.23a.1.1,0,0,0-.13.07,4.23,4.23,0,0,1-.24,1.45,3.36,3.36,0,0,1-1.24,1.56,1.57,1.57,0,0,1-1.51-.49,2.63,2.63,0,0,1-.18-1.95c.22-.71.3-1.07-.5-1.38-1-.4-1.14-1.07-.33-1.87.62-.6,1.26-1.11,1.93-1.69h0l0,0,0,0h0a.15.15,0,0,0,0-.07.19.19,0,0,0-.21-.19l-.11,0h0c-3.09,1.07-5.88,2.49-7.26,5.74a2.85,2.85,0,0,0,.51,3.07,19.37,19.37,0,0,1,1.83,3.11c1,1.93,4.27,2.59,6,1.23a13.93,13.93,0,0,0,1.31-1.24A2.65,2.65,0,0,1,33,154c3,.48,5.09-1.67,4.45-4.67A9.79,9.79,0,0,0,33.45,143.41Z"/><path d="M17,134.58a5.21,5.21,0,0,0,1.22.26A12.79,12.79,0,0,1,25,136.93h0c.1.06.24.12.29,0a.28.28,0,0,0-.09-.28h0s0,0,0,0c-.4-.37-.8-.76-1.22-1.11-.9-.74-1.82-1.45-2.71-2.2a4.31,4.31,0,0,1-.74-.85,1.57,1.57,0,0,1,0-2.08,1.34,1.34,0,0,1,1.95.09c1.05,1,2,2.09,3,3.18a7.42,7.42,0,0,1,.68,1.12h0a.28.28,0,0,0,0,.07h0c.07.11.21.32.3.3s.09-.43.08-.54a26.23,26.23,0,0,0,0-2.66,8.79,8.79,0,0,0-3.29-6.44,2.47,2.47,0,0,0-2.73-.26,4.12,4.12,0,0,1-2.23.22,2.41,2.41,0,0,0-2.53.79,2.19,2.19,0,0,0-.4,2.61A2.11,2.11,0,0,1,15.3,131C14.48,132.61,15.15,134,17,134.58Z"/></g></svg>