<?xml version="1.0" encoding="utf-8"?>
<!-- Generator: Adobe Illustrator 24.0.1, SVG Export Plug-In . SVG Version: 6.00 Build 0)  -->
<svg version="1.1" id="Capa_1" xmlns="http://www.w3.org/2000/svg" xmlns:xlink="http://www.w3.org/1999/xlink" x="0px" y="0px"
	 viewBox="0 0 250 60" style="enable-background:new 0 0 250 60;" xml:space="preserve">
<style type="text/css">
	.st0{fill:#1D1D1B;}
</style>
<g>
	<path class="st0" d="M67.1,56.3c-3.1,0-6-0.6-8.8-1.8c-2.7-1.2-5.1-2.8-7.2-5c-2.1-2.1-3.7-4.6-4.8-7.4c-1.2-2.8-1.7-5.8-1.7-9
		s0.6-6.2,1.7-9c1.2-2.8,2.8-5.2,4.8-7.4c2.1-2.1,4.4-3.8,7.2-5c2.7-1.2,5.6-1.8,8.8-1.8c3.1,0,6,0.6,8.8,1.8c2.7,1.2,5.1,2.8,7.2,5
		c2.1,2.1,3.7,4.6,4.8,7.4c1.2,2.8,1.7,5.8,1.7,9s-0.6,6.2-1.7,9c-1.2,2.8-2.8,5.3-4.8,7.4c-2.1,2.1-4.4,3.8-7.2,5
		C73.2,55.7,70.2,56.3,67.1,56.3z M67.1,54.9c2.9,0,5.6-0.6,8.1-1.7c2.5-1.1,4.7-2.7,6.6-4.7s3.4-4.3,4.5-6.9s1.6-5.4,1.6-8.4
		s-0.5-5.8-1.6-8.4s-2.6-4.9-4.5-6.9s-4.1-3.5-6.6-4.7c-2.5-1.1-5.2-1.7-8.1-1.7s-5.6,0.6-8.1,1.7s-4.7,2.7-6.7,4.7
		c-1.9,2-3.4,4.3-4.5,6.9c-1.1,2.6-1.6,5.4-1.6,8.4s0.5,5.8,1.6,8.4c1.1,2.6,2.6,4.9,4.5,6.9s4.1,3.5,6.7,4.7
		C61.6,54.4,64.2,54.9,67.1,54.9z"/>
	<path class="st0" d="M114.1,55.5v-19L99.2,10.9h1.8l13.8,23.7l13.8-23.7h1.8l-14.9,25.6v19H114.1z"/>
	<path class="st0" d="M182.3,55.5V10.8h1.5v43.3h20.1v1.4H182.3z"/>
	<path class="st0" d="M226.8,56.3c-2.4,0-4.5-0.4-6.3-1.2c-1.7-0.8-3.2-1.8-4.3-2.9c-1.1-1.1-2-2.2-2.6-3.3c-0.6-1-0.9-1.8-1.1-2.2
		l1.2-0.6c0.2,0.5,0.5,1.2,1.1,2.2s1.4,2,2.4,3s2.3,1.9,3.9,2.6c1.6,0.7,3.5,1.1,5.7,1.1c2.1,0,4.1-0.4,5.8-1.2
		c1.8-0.8,3.2-2,4.3-3.5c1.1-1.6,1.6-3.5,1.6-5.8c0-1.9-0.4-3.5-1.1-4.8s-1.7-2.4-2.9-3.3c-1.2-0.9-2.6-1.6-4.1-2.2
		c-1.5-0.6-3-1.2-4.5-1.7c-1-0.3-2.1-0.8-3.4-1.3c-1.2-0.5-2.4-1.2-3.5-2s-2.1-1.9-2.8-3.1c-0.7-1.3-1.1-2.8-1.1-4.7
		c0-1.6,0.3-3.1,0.9-4.4c0.6-1.4,1.4-2.6,2.4-3.6s2.2-1.8,3.6-2.4c1.4-0.6,2.9-0.9,4.6-0.9c1.9,0,3.5,0.3,5,1
		c1.4,0.7,2.6,1.5,3.6,2.5s1.6,2,2.1,3l-1.2,0.6c-0.4-0.9-1-1.8-1.8-2.7c-0.9-0.9-1.9-1.6-3.2-2.2c-1.3-0.6-2.7-0.9-4.4-0.9
		c-2.2,0-4,0.5-5.5,1.5s-2.6,2.3-3.4,3.8s-1.2,3.1-1.2,4.8c0,1.6,0.3,2.9,1,4c0.6,1.1,1.5,2,2.5,2.7s2.1,1.3,3.3,1.8
		c1.2,0.5,2.3,0.9,3.4,1.3c1.6,0.5,3.1,1.1,4.7,1.8s3,1.5,4.3,2.4c1.3,1,2.4,2.2,3.1,3.6s1.2,3.2,1.2,5.3c0,2.6-0.6,4.7-1.8,6.5
		c-1.2,1.8-2.8,3.1-4.8,4.1C231.4,55.9,229.2,56.3,226.8,56.3z"/>
	<g>
		<g>
			<polygon class="st0" points="25.9,8.2 11,8.2 11,3.7 12.1,3.7 12.1,7 24.8,7 24.8,3.7 25.9,3.7 			"/>
		</g>
		<g>
			<rect x="17.9" y="3.7" class="st0" width="1.1" height="3.9"/>
		</g>
	</g>
	<polygon points="170.1,55.5 152.7,10.8 151.3,10.8 134,55.5 135.6,55.5 141.5,40.1 141.5,40.1 142.5,37.6 142.5,37.6 152,12.7 
		160.5,34.7 163.1,41.5 168.5,55.5 	"/>
	<path d="M36.1,55.5l-15-19.9c2.7-0.1,5-0.7,6.9-1.7c2-1.1,3.5-2.5,4.6-4.4s1.6-4,1.6-6.5s-0.6-4.7-1.7-6.5s-2.7-3.2-4.8-4.2
		c-2.1-1-4.5-1.5-7.4-1.5h-9.6v44.6h1.5V40v-4.5V34v-7.5V12.1h8.1c3.8,0,6.8,1,9.1,2.9c2.2,1.9,3.3,4.6,3.3,7.9
		c0,2.3-0.5,4.2-1.5,5.9s-2.5,3-4.3,3.9c-1.9,0.9-4,1.4-6.5,1.4h-0.9V36l14.6,19.4L36.1,55.5L36.1,55.5z"/>
</g>
</svg>
