<svg id="Capa_1" data-name="Capa 1" xmlns="http://www.w3.org/2000/svg" xmlns:xlink="http://www.w3.org/1999/xlink" viewBox="0 0 280 280"><defs><style>.cls-1{fill:#9ad3d1;}.cls-2{opacity:0.8;}.cls-3{fill:#191918;stroke:#1d1d1b;stroke-miterlimit:10;stroke-width:0.5px;}.cls-4{opacity:0.7;}.cls-5{clip-path:url(#clip-path);}</style><clipPath id="clip-path"><path id="SVGID" d="M45.15,144.2a31,31,0,0,1-20.7-7.81l6.35-7.6c4.39,3.63,9,5.93,14.56,5.93,4.39,0,7-1.74,7-4.6V130c0-2.72-1.67-4.11-9.83-6.2-9.82-2.51-16.17-5.23-16.17-14.92v-.14c0-8.85,7.11-14.7,17.08-14.7a28.25,28.25,0,0,1,18.12,6.2L56,108.3c-4.32-3-8.57-4.81-12.68-4.81s-6.27,1.89-6.27,4.26v.14c0,3.2,2.09,4.25,10.52,6.41,9.9,2.58,15.47,6.13,15.47,14.63v.14C63.06,138.76,55.68,144.2,45.15,144.2Zm21.32-.7V94.71H77.21V143.5Zm17.72,0V94.71H94.92V143.5Zm55.67,0-4.46-10.94H114.77l-4.46,10.94H99.37l20.91-49.14h9.89l20.91,49.14Zm-14.78-36.24-6.48,15.82h13Zm69.51,36.24-4.46-10.94H169.5L165,143.5H154.1L175,94.36h9.89l20.91,49.14Zm-14.77-36.24-6.49,15.82h13Zm48.26-12.55h-19V143.5h19c15.34,0,25.93-10.66,25.93-24.39V119C254,105.24,243.42,94.71,228.08,94.71Zm.76,38.43a13.4,13.4,0,0,1-10.76-4.77l4.18-4c1.89,2.13,3.86,3.31,6.66,3.31,2.29,0,3.9-1.3,3.9-3.39,0-2.29-1.93-3.55-5.4-3.55H224.9L224,116.9l6.58-6.62H219.7v-5.21h18.64v4.58l-7,6.66c3.78.63,7.41,2.6,7.41,7.76S235,133.14,228.84,133.14Z"/></clipPath></defs><title>SIIAAD</title><rect class="cls-1" width="280" height="280"/><g class="cls-2"><path class="cls-3" d="M23.06,167a3.63,3.63,0,0,1-1.35-1.17l.48-.34a3.38,3.38,0,0,0,2.91,1.38,3.21,3.21,0,0,0,.95-.14,2.52,2.52,0,0,0,.77-.38,1.74,1.74,0,0,0,.5-.58,1.39,1.39,0,0,0,.19-.72,1.15,1.15,0,0,0-.1-.5,1.09,1.09,0,0,0-.31-.42,2.59,2.59,0,0,0-.56-.38c-.24-.12-.52-.25-.86-.39a9,9,0,0,1-1.09-.48,3.51,3.51,0,0,1-.74-.49,1.56,1.56,0,0,1-.42-.56,1.67,1.67,0,0,1-.13-.69,2,2,0,0,1,.21-.89,2.23,2.23,0,0,1,.61-.73,3,3,0,0,1,.94-.49,3.69,3.69,0,0,1,1.23-.19,3.92,3.92,0,0,1,1.7.36,3.31,3.31,0,0,1,1.2.92l-.48.38a3,3,0,0,0-1.07-.82,3.48,3.48,0,0,0-1.41-.28,2.85,2.85,0,0,0-1,.15,2.38,2.38,0,0,0-.73.37,1.91,1.91,0,0,0-.45.54,1.29,1.29,0,0,0-.16.64,1.14,1.14,0,0,0,.12.52,1.39,1.39,0,0,0,.36.42,3.5,3.5,0,0,0,.62.39c.25.12.55.24.89.37a8.19,8.19,0,0,1,1,.44,3.22,3.22,0,0,1,.69.49,1.83,1.83,0,0,1,.4.58,1.67,1.67,0,0,1,.13.69,2.05,2.05,0,0,1-.23.95,2.39,2.39,0,0,1-.65.77,3.15,3.15,0,0,1-1,.52,3.84,3.84,0,0,1-1.24.19A4.25,4.25,0,0,1,23.06,167Z"/><path class="cls-3" d="M30.32,164.64a1.55,1.55,0,0,0,0,.21,2.23,2.23,0,0,0,.15.83,2.08,2.08,0,0,0,.41.63,1.76,1.76,0,0,0,.63.41,2.23,2.23,0,0,0,.83.14,2.67,2.67,0,0,0,1.16-.22,4.55,4.55,0,0,0,.91-.59l.35.42a5.13,5.13,0,0,1-1,.67,3,3,0,0,1-1.38.28,3,3,0,0,1-1.07-.18,2.58,2.58,0,0,1-.84-.52,2.62,2.62,0,0,1-.74-1.85,3.79,3.79,0,0,1,.27-1.4,4.19,4.19,0,0,1,.74-1.22,3.93,3.93,0,0,1,1.12-.87,3,3,0,0,1,1.39-.33,2.58,2.58,0,0,1,1,.19,1.89,1.89,0,0,1,.72.51,2.05,2.05,0,0,1,.44.74,2.91,2.91,0,0,1,.14.89,3,3,0,0,1-.17,1.06h-5A1.36,1.36,0,0,0,30.32,164.64Zm4.54-.72q0-.09,0-.21a2.53,2.53,0,0,0,0-.29,2.28,2.28,0,0,0-.1-.7,1.52,1.52,0,0,0-.85-1,1.78,1.78,0,0,0-.76-.15,2.35,2.35,0,0,0-1,.19,2.9,2.9,0,0,0-.8.5,3.4,3.4,0,0,0-.61.75,4.11,4.11,0,0,0-.38.89Z"/><path class="cls-3" d="M38,161.2h.58l-.3,1.13.46-.51a3.58,3.58,0,0,1,.49-.4,1.93,1.93,0,0,1,.56-.27,2.43,2.43,0,0,1,.68-.1,1.81,1.81,0,0,1,.72.14,1.51,1.51,0,0,1,.53.34A1.65,1.65,0,0,1,42,162a2.72,2.72,0,0,1,.18.55,3.23,3.23,0,0,1,1-1.09,2.76,2.76,0,0,1,1.5-.41,1.94,1.94,0,0,1,.76.15,1.75,1.75,0,0,1,.6.4,1.85,1.85,0,0,1,.4.61,1.94,1.94,0,0,1,.15.78,2.18,2.18,0,0,1-.05.42c0,.15-.07.29-.11.44l-.92,3.43H45l.93-3.48a2,2,0,0,0,.07-.38,2.62,2.62,0,0,0,0-.37,1.48,1.48,0,0,0-.39-1.08,1.43,1.43,0,0,0-1.06-.39,1.85,1.85,0,0,0-.74.17,3,3,0,0,0-.71.48,3.21,3.21,0,0,0-.58.72,3.31,3.31,0,0,0-.39.9l-.91,3.43h-.58l.93-3.48a3.25,3.25,0,0,0,.07-.38,2.49,2.49,0,0,0,0-.37,1.47,1.47,0,0,0-.38-1.08,1.43,1.43,0,0,0-1.06-.39,1.81,1.81,0,0,0-.74.17,2.78,2.78,0,0,0-.71.48,3.21,3.21,0,0,0-.58.72,3.31,3.31,0,0,0-.39.9l-.92,3.43h-.58Z"/><path class="cls-3" d="M49.4,161.2H50l-1.63,6.08h-.59Zm.57-2.39h.73l-.21.8h-.73Z"/><path class="cls-3" d="M52.29,161.2h.58l-.3,1.13c.15-.17.31-.34.47-.5a3.89,3.89,0,0,1,.52-.41,2.55,2.55,0,0,1,.61-.26,2.25,2.25,0,0,1,.71-.11,2,2,0,0,1,1.44.53,1.85,1.85,0,0,1,.55,1.41,2.12,2.12,0,0,1,0,.42,3.43,3.43,0,0,1-.09.44l-.91,3.43h-.58l.93-3.48a3.25,3.25,0,0,0,.07-.38c0-.14,0-.26,0-.37a1.42,1.42,0,0,0-.42-1.08,1.59,1.59,0,0,0-1.14-.39,2,2,0,0,0-.79.17,2.57,2.57,0,0,0-.74.47,3.51,3.51,0,0,0-.61.71,2.92,2.92,0,0,0-.4.92l-.92,3.43h-.59Z"/><path class="cls-3" d="M59.18,167.32a2,2,0,0,1-.64-.32,1.66,1.66,0,0,1-.44-.54,1.45,1.45,0,0,1-.17-.74,2,2,0,0,1,.77-1.61,2.55,2.55,0,0,1,.87-.44,3.57,3.57,0,0,1,1.1-.16,7.5,7.5,0,0,1,1.27.11,9.16,9.16,0,0,1,1.07.24l.05-.17q0-.13.06-.3c0-.12,0-.22,0-.3a1.26,1.26,0,0,0-.47-1.06,2.2,2.2,0,0,0-1.36-.37,4.35,4.35,0,0,0-.92.09,6,6,0,0,0-.85.23l-.11-.52a5.4,5.4,0,0,1,.9-.27,5.23,5.23,0,0,1,1-.09,2.7,2.7,0,0,1,1.75.51,1.71,1.71,0,0,1,.62,1.39,2.75,2.75,0,0,1,0,.38,3.15,3.15,0,0,1-.09.42l-.93,3.48h-.58l.28-1.05a3.64,3.64,0,0,1-1,.86,2.87,2.87,0,0,1-1.4.33A2.64,2.64,0,0,1,59.18,167.32Zm1.72-.58a2.94,2.94,0,0,0,.81-.41,3.24,3.24,0,0,0,.65-.63,2.71,2.71,0,0,0,.4-.84l.14-.54c-.31-.08-.65-.14-1-.2A8.26,8.26,0,0,0,60.6,164a2.73,2.73,0,0,0-.83.12,2,2,0,0,0-.64.33,1.48,1.48,0,0,0-.42.51,1.38,1.38,0,0,0-.15.65,1.1,1.1,0,0,0,.4.9,1.61,1.61,0,0,0,1.08.34A2.6,2.6,0,0,0,60.9,166.74Z"/><path class="cls-3" d="M66.39,161.2H67l-.45,1.73a6.08,6.08,0,0,1,.64-.77,3.69,3.69,0,0,1,.74-.59,3.56,3.56,0,0,1,.82-.37,3.1,3.1,0,0,1,.92-.1l-.16.65h0a2.88,2.88,0,0,0-1.06.2,3.37,3.37,0,0,0-1,.59,4.46,4.46,0,0,0-.81,1,4.36,4.36,0,0,0-.55,1.3l-.67,2.49h-.58Z"/><path class="cls-3" d="M71.21,161.2h.58l-1.63,6.08h-.59Zm.57-2.39h.73l-.22.8h-.72Z"/><path class="cls-3" d="M74.39,167.22a2.51,2.51,0,0,1-.86-.56,2.6,2.6,0,0,1-.55-.85,2.92,2.92,0,0,1-.2-1.08,3.45,3.45,0,0,1,.29-1.38,4,4,0,0,1,.79-1.18,3.87,3.87,0,0,1,1.15-.81,3.32,3.32,0,0,1,1.39-.31,2.8,2.8,0,0,1,1.1.21,2.38,2.38,0,0,1,.85.56,2.47,2.47,0,0,1,.56.85,2.92,2.92,0,0,1,.2,1.08,3.43,3.43,0,0,1-.3,1.41,4.12,4.12,0,0,1-.8,1.17,4.07,4.07,0,0,1-1.16.8,3.23,3.23,0,0,1-1.36.29A2.77,2.77,0,0,1,74.39,167.22Zm2.24-.61a3.11,3.11,0,0,0,.94-.67,3.16,3.16,0,0,0,.65-1,2.78,2.78,0,0,0,.25-1.18,2.09,2.09,0,0,0-.59-1.6,2.12,2.12,0,0,0-1.54-.56,2.57,2.57,0,0,0-1.11.25,3.28,3.28,0,0,0-.93.68,3.47,3.47,0,0,0-.65,1,2.9,2.9,0,0,0-.24,1.16,2,2,0,0,0,2.14,2.16A2.44,2.44,0,0,0,76.63,166.61Z"/><path class="cls-3" d="M86.06,158.93h.62l-2.24,8.35h-.62Z"/><path class="cls-3" d="M88.49,161.2h.59l-.3,1.13c.15-.17.31-.34.47-.5a3.35,3.35,0,0,1,.52-.41,2.32,2.32,0,0,1,.6-.26,2.35,2.35,0,0,1,.71-.11,2,2,0,0,1,1.45.53,1.88,1.88,0,0,1,.55,1.41,3.29,3.29,0,0,1,0,.42,3.48,3.48,0,0,1-.1.44l-.9,3.43h-.59l.93-3.48a2,2,0,0,0,.07-.38,2.62,2.62,0,0,0,0-.37,1.42,1.42,0,0,0-.42-1.08,1.61,1.61,0,0,0-1.14-.39,2,2,0,0,0-.79.17,2.57,2.57,0,0,0-.74.47,3.55,3.55,0,0,0-.62.71,3.47,3.47,0,0,0-.4.92l-.91,3.43h-.59Z"/><path class="cls-3" d="M95.29,167.1a1,1,0,0,1-.43-.92,1.69,1.69,0,0,1,0-.3,1.78,1.78,0,0,1,0-.28l1-3.87h-.88l.14-.53h.89l.52-1.95h.59l-.53,1.95h2.1l-.14.53h-2.1l-1,3.88a2,2,0,0,0,0,.26c0,.1,0,.18,0,.25a.62.62,0,0,0,.27.56,1.37,1.37,0,0,0,.72.17,2.41,2.41,0,0,0,.88-.19l-.15.57a1.72,1.72,0,0,1-.43.13,2.81,2.81,0,0,1-.43,0A1.79,1.79,0,0,1,95.29,167.1Z"/><path class="cls-3" d="M99.82,164.64v.21a2.23,2.23,0,0,0,.14.83,1.93,1.93,0,0,0,.42.63,1.6,1.6,0,0,0,.63.41,2.14,2.14,0,0,0,.82.14,2.67,2.67,0,0,0,1.16-.22,4.61,4.61,0,0,0,.92-.59l.34.42a5.06,5.06,0,0,1-1,.67,3.44,3.44,0,0,1-2.46.1,2.44,2.44,0,0,1-.83-.52,2.32,2.32,0,0,1-.55-.82,2.63,2.63,0,0,1-.2-1,3.79,3.79,0,0,1,.27-1.4,4,4,0,0,1,.75-1.22,3.8,3.8,0,0,1,1.12-.87,3,3,0,0,1,1.38-.33,2.55,2.55,0,0,1,1,.19,2,2,0,0,1,.73.51,2,2,0,0,1,.43.74,2.64,2.64,0,0,1,.15.89,3.23,3.23,0,0,1-.17,1.06h-5C99.83,164.51,99.83,164.57,99.82,164.64Zm4.54-.72a1.12,1.12,0,0,0,0-.21c0-.08,0-.18,0-.29a2.63,2.63,0,0,0-.1-.7,1.73,1.73,0,0,0-.32-.58,1.47,1.47,0,0,0-.54-.4,1.78,1.78,0,0,0-.76-.15,2.3,2.3,0,0,0-1,.19,2.76,2.76,0,0,0-.8.5,3.4,3.4,0,0,0-.61.75,3.32,3.32,0,0,0-.38.89Z"/><path class="cls-3" d="M107.46,161.2h.59l-.46,1.73a6.14,6.14,0,0,1,.65-.77,3.64,3.64,0,0,1,.73-.59,3.56,3.56,0,0,1,.82-.37,3.13,3.13,0,0,1,.93-.1l-.17.65h0a2.79,2.79,0,0,0-1,.2,3.14,3.14,0,0,0-1,.59,4.23,4.23,0,0,0-.82,1,4.63,4.63,0,0,0-.55,1.3l-.67,2.49h-.58Z"/><path class="cls-3" d="M112.19,161.2h.58l-.3,1.13c.15-.17.31-.34.47-.5a3.89,3.89,0,0,1,.52-.41,2.55,2.55,0,0,1,.61-.26,2.25,2.25,0,0,1,.71-.11,2,2,0,0,1,1.44.53,1.85,1.85,0,0,1,.55,1.41,2.12,2.12,0,0,1,0,.42,3.43,3.43,0,0,1-.09.44l-.91,3.43h-.58l.93-3.48a3.25,3.25,0,0,0,.07-.38c0-.14,0-.26,0-.37a1.42,1.42,0,0,0-.42-1.08,1.59,1.59,0,0,0-1.14-.39,2,2,0,0,0-.79.17,2.57,2.57,0,0,0-.74.47,3.51,3.51,0,0,0-.61.71,2.92,2.92,0,0,0-.4.92l-.92,3.43h-.59Z"/><path class="cls-3" d="M119.08,167.32a2,2,0,0,1-.64-.32,1.66,1.66,0,0,1-.44-.54,1.56,1.56,0,0,1-.17-.74,2,2,0,0,1,.77-1.61,2.55,2.55,0,0,1,.87-.44,3.57,3.57,0,0,1,1.1-.16,7.5,7.5,0,0,1,1.27.11,9.16,9.16,0,0,1,1.07.24l0-.17q0-.13.06-.3c0-.12,0-.22,0-.3a1.26,1.26,0,0,0-.47-1.06,2.2,2.2,0,0,0-1.36-.37,4.35,4.35,0,0,0-.92.09,6,6,0,0,0-.85.23l-.11-.52a5.4,5.4,0,0,1,.9-.27,5.23,5.23,0,0,1,1-.09,2.7,2.7,0,0,1,1.75.51,1.71,1.71,0,0,1,.62,1.39,2.75,2.75,0,0,1,0,.38,3.15,3.15,0,0,1-.09.42l-.93,3.48H122l.28-1.05a3.64,3.64,0,0,1-1,.86,2.87,2.87,0,0,1-1.4.33A2.64,2.64,0,0,1,119.08,167.32Zm1.72-.58a2.94,2.94,0,0,0,.81-.41,3.24,3.24,0,0,0,.65-.63,2.71,2.71,0,0,0,.4-.84l.14-.54c-.31-.08-.65-.14-1-.2a8.26,8.26,0,0,0-1.26-.08,2.73,2.73,0,0,0-.83.12,2,2,0,0,0-.64.33,1.48,1.48,0,0,0-.42.51,1.38,1.38,0,0,0-.15.65,1.1,1.1,0,0,0,.4.9,1.61,1.61,0,0,0,1.08.34A2.6,2.6,0,0,0,120.8,166.74Z"/><path class="cls-3" d="M126.63,167.25a2.34,2.34,0,0,1-.84-.51,2.6,2.6,0,0,1-.6-.82,2.67,2.67,0,0,1-.23-1.12,3.65,3.65,0,0,1,.29-1.43,4.09,4.09,0,0,1,.78-1.19,3.77,3.77,0,0,1,1.15-.82,3.22,3.22,0,0,1,1.36-.31,2.53,2.53,0,0,1,.85.13,2.33,2.33,0,0,1,.67.33,2.57,2.57,0,0,1,.51.47,3.7,3.7,0,0,1,.36.55l-.49.28a4.73,4.73,0,0,0-.32-.46,1.6,1.6,0,0,0-.4-.38,1.87,1.87,0,0,0-.53-.26,2.38,2.38,0,0,0-.68-.09,2.5,2.5,0,0,0-1.11.25,3,3,0,0,0-.93.7,3.56,3.56,0,0,0-.64,1,3.23,3.23,0,0,0-.23,1.19,2.13,2.13,0,0,0,.17.9,1.78,1.78,0,0,0,.46.66,1.93,1.93,0,0,0,.65.41,2.27,2.27,0,0,0,.77.13,2.47,2.47,0,0,0,1.07-.23,3.62,3.62,0,0,0,.9-.64l.39.39a4.23,4.23,0,0,1-1.06.75,2.9,2.9,0,0,1-1.34.29A2.77,2.77,0,0,1,126.63,167.25Z"/><path class="cls-3" d="M133.1,161.2h.58l-1.63,6.08h-.58Zm.57-2.39h.73l-.21.8h-.73Z"/><path class="cls-3" d="M136.28,167.22a2.38,2.38,0,0,1-.85-.56,2.47,2.47,0,0,1-.56-.85,2.92,2.92,0,0,1-.2-1.08,3.3,3.3,0,0,1,.3-1.38,3.77,3.77,0,0,1,1.94-2,3.24,3.24,0,0,1,1.38-.31,2.77,2.77,0,0,1,1.1.21,2.51,2.51,0,0,1,.86.56,2.6,2.6,0,0,1,.55.85,2.92,2.92,0,0,1,.2,1.08,3.43,3.43,0,0,1-.3,1.41,4.12,4.12,0,0,1-.8,1.17,3.94,3.94,0,0,1-1.16.8,3.2,3.2,0,0,1-1.36.29A2.8,2.8,0,0,1,136.28,167.22Zm2.24-.61a3,3,0,0,0,.94-.67,3.16,3.16,0,0,0,.65-1,2.79,2.79,0,0,0,.26-1.18,2,2,0,0,0-2.14-2.16,2.49,2.49,0,0,0-1.1.25,3.19,3.19,0,0,0-.94.68,3.24,3.24,0,0,0-.64,1,2.9,2.9,0,0,0-.24,1.16,2.09,2.09,0,0,0,.59,1.6,2.12,2.12,0,0,0,1.54.56A2.44,2.44,0,0,0,138.52,166.61Z"/><path class="cls-3" d="M143.54,161.2h.58l-.29,1.13c.15-.17.3-.34.47-.5a2.93,2.93,0,0,1,.52-.41,2.7,2.7,0,0,1,1.31-.37,2,2,0,0,1,1.45.53,1.88,1.88,0,0,1,.54,1.41,2.12,2.12,0,0,1,0,.42,3.43,3.43,0,0,1-.09.44l-.91,3.43h-.58l.93-3.48a3.25,3.25,0,0,0,.07-.38,2.49,2.49,0,0,0,0-.37,1.45,1.45,0,0,0-.41-1.08,1.62,1.62,0,0,0-1.15-.39,2.08,2.08,0,0,0-.79.17,2.57,2.57,0,0,0-.74.47,3.51,3.51,0,0,0-.61.71,3.17,3.17,0,0,0-.4.92l-.92,3.43h-.58Z"/><path class="cls-3" d="M150.43,167.32a2,2,0,0,1-.63-.32,1.57,1.57,0,0,1-.62-1.28,2,2,0,0,1,.77-1.61,2.55,2.55,0,0,1,.87-.44,3.59,3.59,0,0,1,1.11-.16,7.59,7.59,0,0,1,1.27.11,9,9,0,0,1,1.06.24l.05-.17a2.27,2.27,0,0,0,.06-.3,1.73,1.73,0,0,0,0-.3,1.26,1.26,0,0,0-.47-1.06,2.2,2.2,0,0,0-1.36-.37,4.35,4.35,0,0,0-.92.09,6.39,6.39,0,0,0-.85.23l-.11-.52a5.5,5.5,0,0,1,.91-.27,5.09,5.09,0,0,1,1-.09,2.69,2.69,0,0,1,1.74.51A1.71,1.71,0,0,1,155,163a2.75,2.75,0,0,1,0,.38,3.15,3.15,0,0,1-.09.42l-.93,3.48h-.57l.27-1.05a3.73,3.73,0,0,1-1,.86,2.91,2.91,0,0,1-1.41.33A2.64,2.64,0,0,1,150.43,167.32Zm1.72-.58a2.81,2.81,0,0,0,.81-.41,3.24,3.24,0,0,0,.65-.63,2.51,2.51,0,0,0,.4-.84l.15-.54c-.31-.08-.66-.14-1-.2a8.18,8.18,0,0,0-1.26-.08,2.78,2.78,0,0,0-.83.12,2,2,0,0,0-.64.33,1.48,1.48,0,0,0-.42.51,1.38,1.38,0,0,0-.15.65,1.12,1.12,0,0,0,.4.9,1.61,1.61,0,0,0,1.08.34A2.55,2.55,0,0,0,152.15,166.74Z"/><path class="cls-3" d="M158.44,158.57H159l-2.33,8.71h-.59Z"/><path class="cls-3" d="M164.4,167.25a2.5,2.5,0,0,1-.78-.53,2.37,2.37,0,0,1-.51-.82,2.82,2.82,0,0,1-.19-1,4.18,4.18,0,0,1,.28-1.51,3.94,3.94,0,0,1,.76-1.21,3.57,3.57,0,0,1,1.1-.8,3,3,0,0,1,1.3-.3,2.55,2.55,0,0,1,.91.15,2.09,2.09,0,0,1,.69.38,2.37,2.37,0,0,1,.5.55,2.88,2.88,0,0,1,.32.63l1.12-4.19h.59l-2.33,8.71h-.58l.31-1.18a4.43,4.43,0,0,1-1.08.94,2.7,2.7,0,0,1-2.41.21Zm2.16-.64a3.69,3.69,0,0,0,1-.7,3.36,3.36,0,0,0,.69-1,2.69,2.69,0,0,0,.26-1.17,2.31,2.31,0,0,0-.15-.83,2,2,0,0,0-.42-.67,2.08,2.08,0,0,0-.67-.45,2.2,2.2,0,0,0-.86-.16,2.45,2.45,0,0,0-1.14.26,2.74,2.74,0,0,0-.89.7,3.06,3.06,0,0,0-.58,1,3.54,3.54,0,0,0-.21,1.21,2.57,2.57,0,0,0,.13.85,2.17,2.17,0,0,0,.39.66,1.81,1.81,0,0,0,.6.42,1.87,1.87,0,0,0,.76.15A2.5,2.5,0,0,0,166.56,166.61Z"/><path class="cls-3" d="M171.32,164.64a1.55,1.55,0,0,0,0,.21,2.23,2.23,0,0,0,.15.83,2.08,2.08,0,0,0,.41.63,1.76,1.76,0,0,0,.63.41,2.19,2.19,0,0,0,.83.14,2.67,2.67,0,0,0,1.16-.22,4.55,4.55,0,0,0,.91-.59l.35.42a5.43,5.43,0,0,1-1,.67,3,3,0,0,1-1.38.28,3,3,0,0,1-1.07-.18,2.58,2.58,0,0,1-.84-.52,2.62,2.62,0,0,1-.74-1.85,3.79,3.79,0,0,1,.27-1.4,4,4,0,0,1,.74-1.22,3.8,3.8,0,0,1,1.12-.87,3,3,0,0,1,1.39-.33,2.58,2.58,0,0,1,1,.19,1.89,1.89,0,0,1,.72.51,2.05,2.05,0,0,1,.44.74,2.91,2.91,0,0,1,.14.89,3.23,3.23,0,0,1-.17,1.06h-5C171.33,164.51,171.32,164.57,171.32,164.64Zm4.54-.72q0-.09,0-.21a2.53,2.53,0,0,0,0-.29,2.28,2.28,0,0,0-.1-.7,1.71,1.71,0,0,0-.31-.58,1.65,1.65,0,0,0-.54-.4,1.78,1.78,0,0,0-.76-.15,2.35,2.35,0,0,0-1,.19,2.9,2.9,0,0,0-.8.5,3.4,3.4,0,0,0-.61.75,4.11,4.11,0,0,0-.38.89Z"/><path class="cls-3" d="M183.37,158.93H184l-2.24,8.35h-.62Z"/><path class="cls-3" d="M185.81,161.2h.58l-.3,1.13c.15-.17.31-.34.47-.5a3.89,3.89,0,0,1,.52-.41,2.66,2.66,0,0,1,.6-.26,2.35,2.35,0,0,1,.71-.11,2,2,0,0,1,1.45.53,1.85,1.85,0,0,1,.55,1.41,2.12,2.12,0,0,1,0,.42,3.43,3.43,0,0,1-.09.44l-.91,3.43h-.59l.94-3.48a3.25,3.25,0,0,0,.07-.38c0-.14,0-.26,0-.37a1.42,1.42,0,0,0-.42-1.08,1.61,1.61,0,0,0-1.14-.39,2,2,0,0,0-.79.17,2.57,2.57,0,0,0-.74.47,3.51,3.51,0,0,0-.61.71,2.92,2.92,0,0,0-.4.92l-.92,3.43h-.59Z"/><path class="cls-3" d="M192.24,161.2h.63l.85,5.43,3.73-5.43h.7l-4.34,6.13h-.5Z"/><path class="cls-3" d="M199.05,164.64v.21a2.23,2.23,0,0,0,.15.83,1.91,1.91,0,0,0,.41.63,1.6,1.6,0,0,0,.63.41,2.17,2.17,0,0,0,.82.14,2.72,2.72,0,0,0,1.17-.22,4.55,4.55,0,0,0,.91-.59l.35.42a5.43,5.43,0,0,1-1,.67,3.08,3.08,0,0,1-1.39.28,3,3,0,0,1-1.06-.18,2.34,2.34,0,0,1-1.39-1.34,2.63,2.63,0,0,1-.19-1,3.78,3.78,0,0,1,.26-1.4,4,4,0,0,1,.75-1.22,3.8,3.8,0,0,1,1.12-.87,3,3,0,0,1,1.38-.33,2.6,2.6,0,0,1,1,.19,2.05,2.05,0,0,1,.72.51,2,2,0,0,1,.43.74,2.64,2.64,0,0,1,.15.89,3.23,3.23,0,0,1-.17,1.06h-5C199.06,164.51,199.06,164.57,199.05,164.64Zm4.54-.72a1.12,1.12,0,0,0,0-.21,2.53,2.53,0,0,0,0-.29,2.28,2.28,0,0,0-.1-.7,1.57,1.57,0,0,0-.32-.58,1.52,1.52,0,0,0-.53-.4,1.82,1.82,0,0,0-.77-.15,2.3,2.3,0,0,0-.95.19,2.76,2.76,0,0,0-.8.5,3.4,3.4,0,0,0-.61.75,3.67,3.67,0,0,0-.38.89Z"/><path class="cls-3" d="M206,167.15a3.39,3.39,0,0,1-1.2-.79l.42-.41a3.46,3.46,0,0,0,1.06.71,3.37,3.37,0,0,0,1.17.22,2,2,0,0,0,.58-.09,1.37,1.37,0,0,0,.5-.24,1.43,1.43,0,0,0,.36-.38,1,1,0,0,0,.14-.5.88.88,0,0,0-.06-.33.75.75,0,0,0-.21-.3,2,2,0,0,0-.4-.29,4.66,4.66,0,0,0-.65-.28,4.24,4.24,0,0,1-1.28-.68,1.2,1.2,0,0,1-.42-1,1.48,1.48,0,0,1,.16-.68,1.89,1.89,0,0,1,.46-.56,2.26,2.26,0,0,1,.72-.39,2.94,2.94,0,0,1,.93-.13,3.16,3.16,0,0,1,1.22.24,3.45,3.45,0,0,1,1,.57l-.38.44a3.4,3.4,0,0,0-.84-.5,2.48,2.48,0,0,0-1-.22,2.27,2.27,0,0,0-.68.1,1.39,1.39,0,0,0-.5.26,1,1,0,0,0-.3.36.87.87,0,0,0-.1.42,1.07,1.07,0,0,0,0,.32.85.85,0,0,0,.21.28,2.76,2.76,0,0,0,.42.28,6.09,6.09,0,0,0,.69.31,6.09,6.09,0,0,1,.76.36,2.79,2.79,0,0,1,.52.37,1.24,1.24,0,0,1,.28.42,1.31,1.31,0,0,1,.09.5,1.55,1.55,0,0,1-.18.73,1.74,1.74,0,0,1-.5.58,2.5,2.5,0,0,1-.72.39,2.84,2.84,0,0,1-.88.13A3.6,3.6,0,0,1,206,167.15Z"/><path class="cls-3" d="M212.11,167.1a1,1,0,0,1-.43-.92,1.69,1.69,0,0,1,0-.3c0-.11,0-.2,0-.28l1-3.87h-.88l.14-.53h.88l.53-1.95H214l-.52,1.95h2.1l-.14.53h-2.1l-1,3.88a2,2,0,0,0,0,.26,1.19,1.19,0,0,0,0,.25.62.62,0,0,0,.27.56,1.37,1.37,0,0,0,.72.17,2.45,2.45,0,0,0,.88-.19l-.15.57a1.85,1.85,0,0,1-.43.13,2.81,2.81,0,0,1-.43,0A1.79,1.79,0,0,1,212.11,167.1Z"/><path class="cls-3" d="M217.42,161.2H218l-1.63,6.08h-.58Zm.57-2.39h.73l-.21.8h-.73Z"/><path class="cls-3" d="M219.63,168.9a4,4,0,0,1-1.3-.83l.43-.43a3.91,3.91,0,0,0,1.1.73,3.2,3.2,0,0,0,1.37.28,2.85,2.85,0,0,0,1.1-.19,2.11,2.11,0,0,0,.77-.48,2.64,2.64,0,0,0,.5-.7,4.37,4.37,0,0,0,.33-.89l.22-.77a4.4,4.4,0,0,1-.5.46,3.27,3.27,0,0,1-.58.39,3,3,0,0,1-1.43.36,3.1,3.1,0,0,1-.95-.16,2.73,2.73,0,0,1-.81-.47,2.3,2.3,0,0,1-.56-.74,2.12,2.12,0,0,1-.22-1,3.15,3.15,0,0,1,.3-1.39,3.48,3.48,0,0,1,1.89-1.78,3.45,3.45,0,0,1,1.26-.25,2.52,2.52,0,0,1,.91.15,2.27,2.27,0,0,1,.67.37,2.11,2.11,0,0,1,.47.52,3.09,3.09,0,0,1,.32.59l.4-1.48h.58l-1.42,5.33a4.71,4.71,0,0,1-.4,1.07,3.31,3.31,0,0,1-.55.74,2.75,2.75,0,0,1-1,.65,3.6,3.6,0,0,1-1.33.22A4.07,4.07,0,0,1,219.63,168.9Zm3.22-2.86a3.29,3.29,0,0,0,.93-.62,2.88,2.88,0,0,0,.64-.87,2.2,2.2,0,0,0,.24-1,1.94,1.94,0,0,0-.14-.7,1.81,1.81,0,0,0-.43-.63,2.11,2.11,0,0,0-.67-.44,2.28,2.28,0,0,0-.89-.16,2.64,2.64,0,0,0-1,.2,2.61,2.61,0,0,0-.89.57,2.91,2.91,0,0,0-.63.9,2.63,2.63,0,0,0-.24,1.13,1.79,1.79,0,0,0,.63,1.38,2.09,2.09,0,0,0,.64.35,2.45,2.45,0,0,0,.75.12A2.78,2.78,0,0,0,222.85,166Z"/><path class="cls-3" d="M227.72,167.32a1.92,1.92,0,0,1-.64-.32,1.57,1.57,0,0,1-.62-1.28,1.94,1.94,0,0,1,.21-.91,1.91,1.91,0,0,1,.56-.7,2.55,2.55,0,0,1,.87-.44,3.59,3.59,0,0,1,1.11-.16,7.59,7.59,0,0,1,1.27.11,9,9,0,0,1,1.06.24l.05-.17a1.33,1.33,0,0,0,.06-.3,1.89,1.89,0,0,0,0-.3,1.26,1.26,0,0,0-.48-1.06,2.18,2.18,0,0,0-1.36-.37,4.19,4.19,0,0,0-.91.09,6.13,6.13,0,0,0-.86.23l-.1-.52a4.83,4.83,0,0,1,1.92-.36,2.69,2.69,0,0,1,1.74.51,1.71,1.71,0,0,1,.62,1.39,2.75,2.75,0,0,1,0,.38,3.15,3.15,0,0,1-.09.42l-.93,3.48h-.57l.27-1.05a3.6,3.6,0,0,1-1,.86,2.88,2.88,0,0,1-1.41.33A2.52,2.52,0,0,1,227.72,167.32Zm1.71-.58a2.81,2.81,0,0,0,.81-.41,3,3,0,0,0,.65-.63,2.51,2.51,0,0,0,.4-.84l.15-.54c-.31-.08-.66-.14-1.05-.2a8.18,8.18,0,0,0-1.26-.08,2.66,2.66,0,0,0-.82.12,2.09,2.09,0,0,0-.65.33,1.48,1.48,0,0,0-.42.51,1.38,1.38,0,0,0-.15.65,1.12,1.12,0,0,0,.4.9,1.61,1.61,0,0,0,1.08.34A2.55,2.55,0,0,0,229.43,166.74Z"/><path class="cls-3" d="M235.27,167.25a2.38,2.38,0,0,1-.85-.51,2.6,2.6,0,0,1-.6-.82,2.67,2.67,0,0,1-.22-1.12,3.65,3.65,0,0,1,.28-1.43,4.09,4.09,0,0,1,.78-1.19,3.9,3.9,0,0,1,1.15-.82,3.23,3.23,0,0,1,1.37-.31,2.47,2.47,0,0,1,.84.13,2.39,2.39,0,0,1,.68.33,2.81,2.81,0,0,1,.5.47,2.6,2.6,0,0,1,.36.55l-.49.28a4.63,4.63,0,0,0-.31-.46,1.64,1.64,0,0,0-.41-.38,1.75,1.75,0,0,0-.53-.26,2.38,2.38,0,0,0-.68-.09,2.5,2.5,0,0,0-1.11.25,2.85,2.85,0,0,0-.92.7,3.35,3.35,0,0,0-.64,1,3,3,0,0,0-.24,1.19,2.29,2.29,0,0,0,.17.9,1.9,1.9,0,0,0,.46.66,1.88,1.88,0,0,0,.66.41,2.17,2.17,0,0,0,.76.13,2.44,2.44,0,0,0,1.07-.23,3.62,3.62,0,0,0,.9-.64l.39.39a4.36,4.36,0,0,1-1,.75,2.93,2.93,0,0,1-1.34.29A2.7,2.7,0,0,1,235.27,167.25Z"/><path class="cls-3" d="M241.73,161.2h.59l-1.64,6.08h-.58Zm.58-2.39H243l-.21.8h-.73Z"/><path class="cls-3" d="M244.91,167.22a2.47,2.47,0,0,1-.85-.56,2.62,2.62,0,0,1-.56-.85,2.92,2.92,0,0,1-.19-1.08,3.29,3.29,0,0,1,.29-1.38,3.82,3.82,0,0,1,.79-1.18,3.74,3.74,0,0,1,1.15-.81,3.31,3.31,0,0,1,1.38-.31,2.82,2.82,0,0,1,1.11.21,2.47,2.47,0,0,1,1.4,1.41,2.92,2.92,0,0,1,.2,1.08,3.43,3.43,0,0,1-.3,1.41,3.93,3.93,0,0,1-.8,1.17,4,4,0,0,1-1.15.8,3.26,3.26,0,0,1-1.36.29A2.82,2.82,0,0,1,244.91,167.22Zm2.25-.61a3.07,3.07,0,0,0,.93-.67,3.38,3.38,0,0,0,.66-1,2.94,2.94,0,0,0,.25-1.18,2,2,0,0,0-2.14-2.16,2.49,2.49,0,0,0-1.1.25,3.32,3.32,0,0,0-.94.68,3.44,3.44,0,0,0-.64,1,2.9,2.9,0,0,0-.24,1.16,2,2,0,0,0,2.14,2.16A2.5,2.5,0,0,0,247.16,166.61Zm.86-8,.74.35-1.61,1.23h-.61Z"/><path class="cls-3" d="M252.17,161.2h.59l-.3,1.13c.15-.17.31-.34.47-.5a2.93,2.93,0,0,1,.52-.41,2.32,2.32,0,0,1,.6-.26,2.35,2.35,0,0,1,.71-.11,2,2,0,0,1,1.45.53,1.88,1.88,0,0,1,.54,1.41,3.19,3.19,0,0,1,0,.42c0,.15-.06.29-.1.44l-.91,3.43h-.58l.93-3.48a2,2,0,0,0,.07-.38,2.62,2.62,0,0,0,0-.37,1.42,1.42,0,0,0-.42-1.08,1.62,1.62,0,0,0-1.15-.39,2,2,0,0,0-.78.17,2.44,2.44,0,0,0-.74.47,3.55,3.55,0,0,0-.62.71,3.17,3.17,0,0,0-.4.92l-.92,3.43h-.58Z"/><path class="cls-3" d="M50.77,179v.2a2.37,2.37,0,0,0,.14.83,1.87,1.87,0,0,0,.42.64A1.72,1.72,0,0,0,52,181a2.39,2.39,0,0,0,.82.14,2.53,2.53,0,0,0,1.16-.23,4.56,4.56,0,0,0,.92-.58l.34.42a5.52,5.52,0,0,1-1,.67,3.44,3.44,0,0,1-2.46.1,2.46,2.46,0,0,1-.83-.53,2.38,2.38,0,0,1-.55-.81,2.66,2.66,0,0,1-.2-1,3.75,3.75,0,0,1,.27-1.4,4.06,4.06,0,0,1,.75-1.23,3.94,3.94,0,0,1,1.12-.86,3,3,0,0,1,1.38-.33,2.38,2.38,0,0,1,1,.19,2.11,2.11,0,0,1,.73.5,2.16,2.16,0,0,1,.43.75,2.64,2.64,0,0,1,.15.89,3.23,3.23,0,0,1-.17,1.06h-5C50.78,178.82,50.78,178.89,50.77,179Zm4.54-.73a.87.87,0,0,0,0-.21c0-.08,0-.18,0-.29a2.69,2.69,0,0,0-.1-.7,1.68,1.68,0,0,0-.32-.57,1.47,1.47,0,0,0-.54-.4,1.78,1.78,0,0,0-.76-.15,2.47,2.47,0,0,0-1,.18,2.79,2.79,0,0,0-.8.51,3.13,3.13,0,0,0-.61.74,3.46,3.46,0,0,0-.38.89Z"/><path class="cls-3" d="M58.41,175.51H59l-.3,1.14c.15-.18.31-.34.47-.5a2.84,2.84,0,0,1,.52-.41,2.74,2.74,0,0,1,.6-.27,2.34,2.34,0,0,1,.71-.1,2,2,0,0,1,1.45.53,1.85,1.85,0,0,1,.54,1.4,3.22,3.22,0,0,1,0,.43c0,.14-.06.29-.1.43L62,181.6h-.59l.93-3.49a1.87,1.87,0,0,0,.07-.37,2.75,2.75,0,0,0,0-.38,1.39,1.39,0,0,0-.42-1.07,1.62,1.62,0,0,0-1.15-.39,2,2,0,0,0-.78.16,2.65,2.65,0,0,0-.74.47,3.62,3.62,0,0,0-.62.72,3.11,3.11,0,0,0-.4.91l-.92,3.44h-.58Z"/><path class="cls-3" d="M73.1,173.19h.59l1.64,8.41H74.7l-.43-2.34H69.34l-1.69,2.34H67Zm1.05,5.51-.9-4.83-3.5,4.83Z"/><path class="cls-3" d="M78.34,175.51h.58l-.45,1.73a7.92,7.92,0,0,1,.64-.77,4.39,4.39,0,0,1,.73-.59,3.21,3.21,0,0,1,.83-.36,2.8,2.8,0,0,1,.92-.1l-.16.64h-.05a2.9,2.9,0,0,0-1.06.21,3.37,3.37,0,0,0-1,.59,4,4,0,0,0-.82.95A4.68,4.68,0,0,0,78,179.1l-.67,2.5h-.59Z"/><path class="cls-3" d="M86.76,180.41a4.51,4.51,0,0,1-1.09.94,2.6,2.6,0,0,1-1.44.4,2.41,2.41,0,0,1-1.75-.72,2.42,2.42,0,0,1-.51-.81,2.66,2.66,0,0,1-.19-1,4.14,4.14,0,0,1,.28-1.51,3.83,3.83,0,0,1,.76-1.21,3.78,3.78,0,0,1,1.1-.81,3.08,3.08,0,0,1,1.3-.29,2.81,2.81,0,0,1,.91.14,2.28,2.28,0,0,1,.69.38,2.33,2.33,0,0,1,.5.54,3.74,3.74,0,0,1,.32.63l.42-1.55h.58L86.39,184H85.8Zm-1.34.52a3.73,3.73,0,0,0,1-.71,3.55,3.55,0,0,0,.69-1,2.85,2.85,0,0,0,.26-1.18,2.25,2.25,0,0,0-.15-.82,1.93,1.93,0,0,0-.43-.66,2,2,0,0,0-.66-.45,2.2,2.2,0,0,0-.86-.17,2.58,2.58,0,0,0-1.14.26,3,3,0,0,0-.89.7,3.32,3.32,0,0,0-.59,1,3.44,3.44,0,0,0-.2,1.2,2.53,2.53,0,0,0,.13.85,1.77,1.77,0,0,0,1,1.08,1.87,1.87,0,0,0,.76.15A2.66,2.66,0,0,0,85.42,180.93Z"/><path class="cls-3" d="M90.25,181.22a1.88,1.88,0,0,1-.55-1.41,3.28,3.28,0,0,1,0-.43,3.34,3.34,0,0,1,.1-.43l.9-3.44h.59L90.4,179a1.35,1.35,0,0,0-.07.37,2.75,2.75,0,0,0,0,.38,1.39,1.39,0,0,0,.42,1.07,1.57,1.57,0,0,0,1.14.4,2,2,0,0,0,.79-.17,2.8,2.8,0,0,0,.74-.47,3.36,3.36,0,0,0,.62-.72,3.4,3.4,0,0,0,.4-.91l.91-3.44h.59l-1.62,6.09H93.7l.3-1.14a4.66,4.66,0,0,1-.47.51,2.78,2.78,0,0,1-.52.4,2.74,2.74,0,0,1-.6.27,2.34,2.34,0,0,1-.71.1A2,2,0,0,1,90.25,181.22Z"/><path class="cls-3" d="M98.22,175.51h.59l-1.64,6.09h-.58Zm.58-2.38h.72l-.21.8h-.73Z"/><path class="cls-3" d="M100.61,181.42a1,1,0,0,1-.42-.92,1.6,1.6,0,0,1,0-.3c0-.11,0-.2,0-.28l1-3.87h-.88l.14-.54h.88l.53-1.94h.58l-.52,1.94h2.1l-.15.54h-2.09l-1,3.88a1.78,1.78,0,0,0,0,.26,1.19,1.19,0,0,0,0,.25.62.62,0,0,0,.27.56,1.37,1.37,0,0,0,.72.17,2.45,2.45,0,0,0,.88-.19l-.15.57a2.51,2.51,0,0,1-.43.13,2.81,2.81,0,0,1-.43,0A1.84,1.84,0,0,1,100.61,181.42Z"/><path class="cls-3" d="M105.15,179a1.41,1.41,0,0,0,0,.2,2.16,2.16,0,0,0,.15.83,2,2,0,0,0,.41.64,1.85,1.85,0,0,0,.64.41,2.35,2.35,0,0,0,.82.14,2.53,2.53,0,0,0,1.16-.23,4.23,4.23,0,0,0,.91-.58l.35.42a5.6,5.6,0,0,1-1,.67,3,3,0,0,1-1.38.28,3,3,0,0,1-1.07-.18,2.46,2.46,0,0,1-.83-.53,2.38,2.38,0,0,1-.55-.81,2.66,2.66,0,0,1-.2-1,3.75,3.75,0,0,1,.27-1.4,4.25,4.25,0,0,1,.74-1.23,4,4,0,0,1,1.13-.86,3,3,0,0,1,1.38-.33,2.41,2.41,0,0,1,1,.19,2,2,0,0,1,.72.5,2.18,2.18,0,0,1,.44.75,2.91,2.91,0,0,1,.14.89,3,3,0,0,1-.17,1.06h-5A1.23,1.23,0,0,0,105.15,179Zm4.54-.73a1,1,0,0,0,0-.21,2.23,2.23,0,0,0-.09-1,1.51,1.51,0,0,0-.31-.57,1.56,1.56,0,0,0-.54-.4,1.78,1.78,0,0,0-.76-.15,2.56,2.56,0,0,0-1,.18,2.94,2.94,0,0,0-.8.51,2.87,2.87,0,0,0-.6.74,3.89,3.89,0,0,0-.39.89Z"/><path class="cls-3" d="M113.14,181.57a2.6,2.6,0,0,1-.85-.51,2.64,2.64,0,0,1-.6-.83,2.59,2.59,0,0,1-.23-1.11,3.65,3.65,0,0,1,.29-1.43,3.91,3.91,0,0,1,1.93-2,3.21,3.21,0,0,1,1.36-.3,2.82,2.82,0,0,1,.85.12,2.17,2.17,0,0,1,.68.34,2.81,2.81,0,0,1,.5.47,3.05,3.05,0,0,1,.36.55l-.49.27a4.25,4.25,0,0,0-.32-.46,2.07,2.07,0,0,0-.4-.38,2.16,2.16,0,0,0-.53-.25,2.07,2.07,0,0,0-.68-.1,2.51,2.51,0,0,0-1.11.26,3.13,3.13,0,0,0-.93.69,3.38,3.38,0,0,0-.63,1,3,3,0,0,0-.24,1.19,2.05,2.05,0,0,0,.63,1.56,1.86,1.86,0,0,0,.66.4,2,2,0,0,0,.76.14,2.34,2.34,0,0,0,1.07-.24,3.86,3.86,0,0,0,.9-.63l.39.38a4.36,4.36,0,0,1-1.05.75,3,3,0,0,1-1.35.3A2.91,2.91,0,0,1,113.14,181.57Z"/><path class="cls-3" d="M119,181.42a1,1,0,0,1-.42-.92,1.56,1.56,0,0,1,0-.3c0-.11,0-.2,0-.28l1-3.87h-.89l.15-.54h.88l.52-1.94H121l-.53,1.94h2.1l-.14.54h-2.1l-1,3.88c0,.08,0,.16,0,.26s0,.18,0,.25a.62.62,0,0,0,.27.56,1.37,1.37,0,0,0,.72.17,2.5,2.5,0,0,0,.89-.19l-.16.57a2.27,2.27,0,0,1-.43.13,2.81,2.81,0,0,1-.43,0A1.81,1.81,0,0,1,119,181.42Z"/><path class="cls-3" d="M123.62,181.22a1.85,1.85,0,0,1-.55-1.41,2.15,2.15,0,0,1,0-.43,3.29,3.29,0,0,1,.09-.43l.91-3.44h.59l-.94,3.49a3.06,3.06,0,0,0-.07.37c0,.14,0,.27,0,.38a1.39,1.39,0,0,0,.42,1.07,1.55,1.55,0,0,0,1.14.4,2,2,0,0,0,.79-.17,2.8,2.8,0,0,0,.74-.47,3.32,3.32,0,0,0,.61-.72,2.87,2.87,0,0,0,.4-.91l.92-3.44h.59l-1.63,6.09h-.58l.3-1.14a4.66,4.66,0,0,1-.47.51,3.14,3.14,0,0,1-.52.4,3.05,3.05,0,0,1-.61.27,2.26,2.26,0,0,1-.71.1A2,2,0,0,1,123.62,181.22Z"/><path class="cls-3" d="M131.5,175.51h.58l-.45,1.73a7.92,7.92,0,0,1,.64-.77,4.39,4.39,0,0,1,.73-.59,3.21,3.21,0,0,1,.83-.36,2.8,2.8,0,0,1,.92-.1l-.17.64h0a2.9,2.9,0,0,0-1.06.21,3.37,3.37,0,0,0-1,.59,4,4,0,0,0-.82.95,4.68,4.68,0,0,0-.54,1.29l-.67,2.5h-.59Z"/><path class="cls-3" d="M135.83,181.63a1.92,1.92,0,0,1-.64-.32,1.54,1.54,0,0,1-.45-.53,1.58,1.58,0,0,1-.17-.74,2,2,0,0,1,.21-.92,2.09,2.09,0,0,1,.56-.7,2.85,2.85,0,0,1,.87-.44,3.92,3.92,0,0,1,1.11-.15,6.67,6.67,0,0,1,1.27.11c.41.07.76.15,1.07.23l0-.16a1.31,1.31,0,0,0,.06-.31,1.69,1.69,0,0,0,0-.3,1.25,1.25,0,0,0-.47-1.05A2.17,2.17,0,0,0,138,176a5.05,5.05,0,0,0-.91.08,8,8,0,0,0-.86.24l-.1-.53a6.1,6.1,0,0,1,.9-.26,5.23,5.23,0,0,1,1-.09,2.67,2.67,0,0,1,1.74.51,1.69,1.69,0,0,1,.62,1.38,2.88,2.88,0,0,1,0,.39,2.71,2.71,0,0,1-.09.41l-.93,3.49h-.57l.27-1a3.76,3.76,0,0,1-1,.86,2.87,2.87,0,0,1-1.4.33A2.25,2.25,0,0,1,135.83,181.63Zm1.71-.57A3,3,0,0,0,139,180a2.46,2.46,0,0,0,.4-.83l.15-.54a8.56,8.56,0,0,0-1.05-.2,8.07,8.07,0,0,0-1.25-.09,2.68,2.68,0,0,0-.83.12,1.91,1.91,0,0,0-.65.34,1.54,1.54,0,0,0-.42.5,1.41,1.41,0,0,0-.14.65,1.1,1.1,0,0,0,.4.91,1.61,1.61,0,0,0,1.07.33A2.54,2.54,0,0,0,137.54,181.06Z"/><path class="cls-3" d="M140.65,182.58a1.73,1.73,0,0,0,.66-.4,1.1,1.1,0,0,0,.29-.58h-.32l.27-1h.79l-.24.89a2.34,2.34,0,0,1-.2.53,1.36,1.36,0,0,1-.27.39,1.78,1.78,0,0,1-.38.28,2.84,2.84,0,0,1-.52.19Z"/><path class="cls-3" d="M153.18,173.19h.6l1.63,8.41h-.63l-.43-2.34h-4.92l-1.7,2.34H147Zm1,5.51-.89-4.83-3.51,4.83Z"/><path class="cls-3" d="M158.42,175.51H159l-.46,1.73a8,8,0,0,1,.65-.77,4,4,0,0,1,.73-.59,3.15,3.15,0,0,1,.82-.36,2.83,2.83,0,0,1,.93-.1l-.17.64h0a2.81,2.81,0,0,0-1.05.21,3.14,3.14,0,0,0-1,.59,3.83,3.83,0,0,0-.82.95,4.69,4.69,0,0,0-.55,1.29l-.67,2.5h-.58Z"/><path class="cls-3" d="M162.65,181.42a1,1,0,0,1-.42-.92,1.56,1.56,0,0,1,0-.3c0-.11,0-.2.05-.28l1-3.87h-.89l.15-.54h.88l.52-1.94h.59l-.53,1.94h2.1l-.14.54h-2.1l-1,3.88c0,.08,0,.16,0,.26s0,.18,0,.25a.62.62,0,0,0,.27.56,1.37,1.37,0,0,0,.72.17,2.5,2.5,0,0,0,.89-.19l-.16.57a2.27,2.27,0,0,1-.43.13,2.81,2.81,0,0,1-.43,0A1.81,1.81,0,0,1,162.65,181.42Z"/><path class="cls-3" d="M167.18,179v.2a2.16,2.16,0,0,0,.15.83,1.85,1.85,0,0,0,.41.64,1.72,1.72,0,0,0,.63.41,2.39,2.39,0,0,0,.82.14,2.6,2.6,0,0,0,1.17-.23,4.49,4.49,0,0,0,.91-.58l.35.42a6,6,0,0,1-1,.67,3.08,3.08,0,0,1-1.39.28,3,3,0,0,1-1.06-.18,2.41,2.41,0,0,1-1.39-1.34,2.66,2.66,0,0,1-.19-1,3.74,3.74,0,0,1,.26-1.4,4.06,4.06,0,0,1,.75-1.23,3.94,3.94,0,0,1,1.12-.86,3,3,0,0,1,1.38-.33,2.43,2.43,0,0,1,1,.19,2,2,0,0,1,1.15,1.25,2.64,2.64,0,0,1,.15.89,3.23,3.23,0,0,1-.17,1.06h-5C167.19,178.82,167.19,178.89,167.18,179Zm4.54-.73a.87.87,0,0,0,0-.21,2.53,2.53,0,0,0,0-.29,2.32,2.32,0,0,0-.1-.7,1.61,1.61,0,0,0-.85-1,1.82,1.82,0,0,0-.77-.15,2.47,2.47,0,0,0-1,.18,2.79,2.79,0,0,0-.8.51,3.13,3.13,0,0,0-.61.74,3.85,3.85,0,0,0-.38.89Z"/><path class="cls-3" d="M175.43,183.12l.33-.48a1.6,1.6,0,0,0,.49.25,1.9,1.9,0,0,0,.54.09,1.64,1.64,0,0,0,.93-.31,4.44,4.44,0,0,0,1-1.12l-1.24-6h.62l1.06,5.44,3.66-5.44h.71l-4.34,6.3a5.05,5.05,0,0,1-1.25,1.35,2.26,2.26,0,0,1-1.24.38A2.21,2.21,0,0,1,175.43,183.12Z"/><path class="cls-3" d="M189.5,173.25h1.87a6,6,0,0,1,1.83.27,3.57,3.57,0,0,1,1.42.85,3.09,3.09,0,0,1,.68,1,3.59,3.59,0,0,1,.23,1.36,4.75,4.75,0,0,1-.33,1.79,4.25,4.25,0,0,1-1,1.45,5.34,5.34,0,0,1-1.84,1.18,6.73,6.73,0,0,1-2.4.43h-2.73Zm.58,7.79a5.69,5.69,0,0,0,2.07-.37,4.76,4.76,0,0,0,1.63-1.07,3.74,3.74,0,0,0,.83-1.25,3.93,3.93,0,0,0,.29-1.55,2.77,2.77,0,0,0-.77-2.05,2.94,2.94,0,0,0-1.18-.7,5,5,0,0,0-1.6-.24H190L188,181Z"/><path class="cls-3" d="M198.05,175.51h.59L197,181.6h-.58Zm.57-2.38h.73l-.21.8h-.73Z"/><path class="cls-3" d="M200.21,181.47a3.59,3.59,0,0,1-1.19-.79l.42-.42a3.07,3.07,0,0,0,2.23.93,2.24,2.24,0,0,0,.57-.08,1.73,1.73,0,0,0,.51-.25,1.27,1.27,0,0,0,.35-.38.83.83,0,0,0,.14-.49,1,1,0,0,0-.06-.34.79.79,0,0,0-.21-.29,1.48,1.48,0,0,0-.4-.29,4.58,4.58,0,0,0-.65-.29,4.15,4.15,0,0,1-1.28-.68,1.18,1.18,0,0,1-.42-.95,1.46,1.46,0,0,1,.17-.68,1.68,1.68,0,0,1,.46-.57,2.09,2.09,0,0,1,.71-.38,3.15,3.15,0,0,1,2.16.11,3.87,3.87,0,0,1,1,.56l-.39.44a3.73,3.73,0,0,0-.84-.5,2.6,2.6,0,0,0-1-.21,2.38,2.38,0,0,0-.68.09,1.51,1.51,0,0,0-.49.26,1,1,0,0,0-.3.36.92.92,0,0,0-.1.42.8.8,0,0,0,0,.32.67.67,0,0,0,.21.29,2.61,2.61,0,0,0,.41.28l.69.31a5.13,5.13,0,0,1,.77.35,2.41,2.41,0,0,1,.51.38,1.11,1.11,0,0,1,.28.42,1.26,1.26,0,0,1,.09.49,1.59,1.59,0,0,1-.18.74,1.94,1.94,0,0,1-.49.58,2.41,2.41,0,0,1-.73.38,2.74,2.74,0,0,1-.87.14A3.89,3.89,0,0,1,200.21,181.47Z"/><path class="cls-3" d="M206.16,179a1.41,1.41,0,0,0,0,.2,2.16,2.16,0,0,0,.15.83,2,2,0,0,0,.41.64,1.85,1.85,0,0,0,.64.41,2.35,2.35,0,0,0,.82.14,2.53,2.53,0,0,0,1.16-.23,4.23,4.23,0,0,0,.91-.58l.35.42a5.6,5.6,0,0,1-1,.67,3,3,0,0,1-1.38.28,3,3,0,0,1-1.07-.18,2.46,2.46,0,0,1-.83-.53,2.38,2.38,0,0,1-.55-.81,2.66,2.66,0,0,1-.2-1,3.75,3.75,0,0,1,.27-1.4,4.25,4.25,0,0,1,.74-1.23,4,4,0,0,1,1.13-.86,3,3,0,0,1,1.38-.33,2.38,2.38,0,0,1,1,.19,2,2,0,0,1,.72.5,2.18,2.18,0,0,1,.44.75,2.91,2.91,0,0,1,.14.89,3.23,3.23,0,0,1-.16,1.06h-5A1.23,1.23,0,0,0,206.16,179Zm4.54-.73a1,1,0,0,0,0-.21,2.23,2.23,0,0,0-.09-1,1.51,1.51,0,0,0-.31-.57,1.56,1.56,0,0,0-.54-.4,1.78,1.78,0,0,0-.76-.15,2.56,2.56,0,0,0-1,.18,2.94,2.94,0,0,0-.8.51,3.09,3.09,0,0,0-.6.74,3.89,3.89,0,0,0-.39.89Z"/><path class="cls-3" d="M213.8,175.51h.58l-.29,1.14a5.56,5.56,0,0,1,.47-.5,2.54,2.54,0,0,1,.52-.41,2.74,2.74,0,0,1,.6-.27,2.3,2.3,0,0,1,.71-.1,2,2,0,0,1,1.45.53,1.85,1.85,0,0,1,.54,1.4,2.15,2.15,0,0,1,0,.43,3.29,3.29,0,0,1-.09.43l-.91,3.44h-.58l.93-3.49a3.06,3.06,0,0,0,.07-.37,2.62,2.62,0,0,0,0-.38,1.39,1.39,0,0,0-.41-1.07,1.62,1.62,0,0,0-1.15-.39,2.06,2.06,0,0,0-.79.16,3,3,0,0,0-.74.47,3.57,3.57,0,0,0-.61.72,3.11,3.11,0,0,0-.4.91l-.92,3.44h-.58Zm.94-1.17a3.36,3.36,0,0,1,.57-.86.94.94,0,0,1,.67-.28.79.79,0,0,1,.44.11,3,3,0,0,1,.36.31c.14.12.24.22.31.27a.38.38,0,0,0,.26.08.47.47,0,0,0,.35-.17,4.14,4.14,0,0,0,.36-.54l.45.18a3,3,0,0,1-.57.86.91.91,0,0,1-.67.28.69.69,0,0,1-.43-.11l-.37-.3c-.13-.13-.24-.22-.31-.28a.45.45,0,0,0-.26-.08.47.47,0,0,0-.35.18,3.22,3.22,0,0,0-.35.53Z"/><path class="cls-3" d="M221.38,181.54a2.62,2.62,0,0,1-.85-.56,2.51,2.51,0,0,1-.56-.86,2.92,2.92,0,0,1-.19-1.08,3.35,3.35,0,0,1,.29-1.38,3.77,3.77,0,0,1,.79-1.17,4,4,0,0,1,1.15-.82,3.26,3.26,0,0,1,1.38-.3,3,3,0,0,1,1.1.2,2.84,2.84,0,0,1,.86.56,2.49,2.49,0,0,1,.55.86,2.92,2.92,0,0,1,.2,1.08,3.36,3.36,0,0,1-.3,1.4,3.69,3.69,0,0,1-.8,1.17,3.76,3.76,0,0,1-1.16.8,3.21,3.21,0,0,1-1.36.3A3,3,0,0,1,221.38,181.54Zm2.24-.61a3.16,3.16,0,0,0,.94-.67,3.52,3.52,0,0,0,.66-1,3,3,0,0,0,.25-1.19,2.09,2.09,0,0,0-.59-1.59,2.15,2.15,0,0,0-1.55-.57,2.5,2.5,0,0,0-1.1.26,3,3,0,0,0-.94.68,3.26,3.26,0,0,0-.64,1,3,3,0,0,0-.24,1.17,2.13,2.13,0,0,0,.59,1.6,2.16,2.16,0,0,0,1.54.56A2.44,2.44,0,0,0,223.62,180.93Z"/><path class="cls-3" d="M227.16,180.58H228l-.28,1h-.78Z"/></g><g class="cls-4"><path id="SVGID-2" data-name="SVGID" d="M45.15,144.2a31,31,0,0,1-20.7-7.81l6.35-7.6c4.39,3.63,9,5.93,14.56,5.93,4.39,0,7-1.74,7-4.6V130c0-2.72-1.67-4.11-9.83-6.2-9.82-2.51-16.17-5.23-16.17-14.92v-.14c0-8.85,7.11-14.7,17.08-14.7a28.25,28.25,0,0,1,18.12,6.2L56,108.3c-4.32-3-8.57-4.81-12.68-4.81s-6.27,1.89-6.27,4.26v.14c0,3.2,2.09,4.25,10.52,6.41,9.9,2.58,15.47,6.13,15.47,14.63v.14C63.06,138.76,55.68,144.2,45.15,144.2Zm21.32-.7V94.71H77.21V143.5Zm17.72,0V94.71H94.92V143.5Zm55.67,0-4.46-10.94H114.77l-4.46,10.94H99.37l20.91-49.14h9.89l20.91,49.14Zm-14.78-36.24-6.48,15.82h13Zm69.51,36.24-4.46-10.94H169.5L165,143.5H154.1L175,94.36h9.89l20.91,49.14Zm-14.77-36.24-6.49,15.82h13Zm48.26-12.55h-19V143.5h19c15.34,0,25.93-10.66,25.93-24.39V119C254,105.24,243.42,94.71,228.08,94.71Zm.76,38.43a13.4,13.4,0,0,1-10.76-4.77l4.18-4c1.89,2.13,3.86,3.31,6.66,3.31,2.29,0,3.9-1.3,3.9-3.39,0-2.29-1.93-3.55-5.4-3.55H224.9L224,116.9l6.58-6.62H219.7v-5.21h18.64v4.58l-7,6.66c3.78.63,7.41,2.6,7.41,7.76S235,133.14,228.84,133.14Z"/><g class="cls-5"><rect x="-6.62" y="79.58" width="294.09" height="79.04"/></g></g></svg>