<svg id="Capa_1" data-name="Capa 1" xmlns="http://www.w3.org/2000/svg" viewBox="0 0 280 280"><defs><style>.cls-1{fill:#9ad3d1;}.cls-2{opacity:0.9;}.cls-3{fill:#1d1d1b;}.cls-4{opacity:0.7;}</style></defs><title>TK</title><rect class="cls-1" width="280" height="280"/><g class="cls-2"><path class="cls-3" d="M38.62,215.12h24v.9H51v31.2h-.89V216H38.62Z"/><path class="cls-3" d="M60.78,228.22a7,7,0,0,1,1.69-2.45,7.77,7.77,0,0,1,2.69-1.62,11.21,11.21,0,0,1,3.76-.58,13.64,13.64,0,0,1,2.9.31,6.16,6.16,0,0,1,2.4,1.11,5.68,5.68,0,0,1,1.66,2,7.41,7.41,0,0,1,.68,3.15v14.7a1.5,1.5,0,0,0,.27,1,1.31,1.31,0,0,0,.72.42,3,3,0,0,0,1,.09c.35,0,.67,0,1-.06v.9H78.13a3.12,3.12,0,0,1-1.73-.48,1.94,1.94,0,0,1-.74-1.77v-3h-.09a6.91,6.91,0,0,1-1.15,2.15,8.33,8.33,0,0,1-2,1.85,10.49,10.49,0,0,1-2.72,1.28,11.4,11.4,0,0,1-3.33.47,9.31,9.31,0,0,1-5.62-1.55,5.39,5.39,0,0,1-2.11-4.65,7.41,7.41,0,0,1,.69-3.46A5.51,5.51,0,0,1,61.18,236a7.23,7.23,0,0,1,2.57-1,20.18,20.18,0,0,1,2.87-.39l4.09-.24a13.2,13.2,0,0,0,2.81-.45,3,3,0,0,0,1.62-1,3.27,3.27,0,0,0,.52-2,13.68,13.68,0,0,0-.18-2.16,4.65,4.65,0,0,0-.88-2.06,4.94,4.94,0,0,0-2-1.55,9,9,0,0,0-3.64-.61,8.34,8.34,0,0,0-5.67,1.77,7,7,0,0,0-2.25,5h-.89A9.29,9.29,0,0,1,60.78,228.22Zm14.79,5.42a2.83,2.83,0,0,1-1.39,1,11.83,11.83,0,0,1-2.16.51,23,23,0,0,1-2.63.23c-1,0-1.87.07-2.77.13a22.49,22.49,0,0,0-2.63.34,6.43,6.43,0,0,0-2.27.9,4.53,4.53,0,0,0-1.57,1.8,6.58,6.58,0,0,0-.58,3,6,6,0,0,0,.33,2,4.15,4.15,0,0,0,1.15,1.71,6.12,6.12,0,0,0,2.09,1.21,9.08,9.08,0,0,0,3.17.48,9.91,9.91,0,0,0,4-.77,8.89,8.89,0,0,0,2.94-2,8,8,0,0,0,1.8-2.85,9.3,9.3,0,0,0,.61-3.33v-4.27Z"/><path class="cls-3" d="M99.44,242.83a8.34,8.34,0,0,1-2,2.63,8.75,8.75,0,0,1-2.88,1.67,10.7,10.7,0,0,1-3.62.58,10,10,0,0,1-4.38-.92,9.42,9.42,0,0,1-3.21-2.5,10.87,10.87,0,0,1-2-3.66,14.43,14.43,0,0,1-.68-4.47,17.06,17.06,0,0,1,.66-4.79,11.88,11.88,0,0,1,2-4,9.77,9.77,0,0,1,3.38-2.77,10.58,10.58,0,0,1,4.78-1,10.07,10.07,0,0,1,3.11.49,8.51,8.51,0,0,1,2.65,1.44,7.92,7.92,0,0,1,2,2.36,8.78,8.78,0,0,1,1,3.26h-.89a8.35,8.35,0,0,0-1-2.94,7.27,7.27,0,0,0-1.76-2.07,7.16,7.16,0,0,0-2.33-1.24,9.24,9.24,0,0,0-2.75-.4,9.43,9.43,0,0,0-4.65,1.06,8.72,8.72,0,0,0-3.06,2.74A11.56,11.56,0,0,0,82.11,232a17.42,17.42,0,0,0-.52,4.12,13.49,13.49,0,0,0,.61,4A10.7,10.7,0,0,0,84,243.62,8.34,8.34,0,0,0,86.9,246a9,9,0,0,0,4,.88,9.8,9.8,0,0,0,3.2-.52,8.1,8.1,0,0,0,2.63-1.51,7.88,7.88,0,0,0,2.72-5.48h.89A9.82,9.82,0,0,1,99.44,242.83Z"/><path class="cls-3" d="M105.15,247.22h-.9v-32.1h.9v22.25l16-13.26h1.3l-10.61,8.81,11.38,14.3H122l-10.83-13.67-6,4.94Z"/><path class="cls-3" d="M126.68,242.72a5.65,5.65,0,0,0,.29,2,2.66,2.66,0,0,0,.75,1.08,2,2,0,0,0,1,.43,9.45,9.45,0,0,0,1.07.07c.45,0,.86,0,1.22,0a2.39,2.39,0,0,0,.76-.11v.9l-.78.09a14.16,14.16,0,0,1-1.42.05,4,4,0,0,1-2.68-.93c-.73-.61-1.1-1.74-1.1-3.39V225h-4.22v-.9h4.22v-7.28h.9v7.28h5.22v.9h-5.22Z"/><path class="cls-3" d="M135,219.66v-4.54h.9v4.54Zm0,27.56V224.11h.9v23.11Z"/><path class="cls-3" d="M141.79,247.22h-.9v-32.1h.9v22.25l16-13.26h1.3l-10.61,8.81,11.37,14.3H158.6l-10.83-13.67-6,4.94Z"/><path class="cls-3" d="M160.85,219.66v-4.54h.9v4.54Zm0,27.56V224.11h.9v23.11Z"/><path class="cls-3" d="M167.59,224.11v5.71h.09a8.29,8.29,0,0,1,1-2.47,7.81,7.81,0,0,1,4.2-3.31,10.44,10.44,0,0,1,6.41.07,7.09,7.09,0,0,1,4.32,4.2,9.91,9.91,0,0,1,.6,3.58v15.33h-.9V232a9,9,0,0,0-.58-3.44,6.45,6.45,0,0,0-1.6-2.34,6.24,6.24,0,0,0-2.33-1.34,9,9,0,0,0-2.81-.43,8,8,0,0,0-3.65.79,7.87,7.87,0,0,0-2.63,2.11,9.28,9.28,0,0,0-1.59,3.08,12.46,12.46,0,0,0-.54,3.68v13.09h-.9V224.11Z"/><path class="cls-3" d="M203.69,228a5.18,5.18,0,0,0-1.53-2,6.27,6.27,0,0,0-2.36-1.15,11.93,11.93,0,0,0-3-.36,9.3,9.3,0,0,0-3.83.65,5.82,5.82,0,0,0-2.06,1.48,4.11,4.11,0,0,0-.86,1.65,6,6,0,0,0-.18,1.12,4.25,4.25,0,0,0,.7,2.63,4.46,4.46,0,0,0,1.86,1.42,20.28,20.28,0,0,0,2.63.85l3.31.85q1.35.36,2.67.75a8.93,8.93,0,0,1,2.39,1,5.44,5.44,0,0,1,1.7,1.71,5,5,0,0,1,.66,2.7,5.51,5.51,0,0,1-.75,3,6,6,0,0,1-1.93,2,8.12,8.12,0,0,1-2.7,1.1,13.32,13.32,0,0,1-3,.34q-4.62,0-7-2T188,239.3h.9q0,3.91,2.18,5.74a9.58,9.58,0,0,0,6.27,1.82,11.78,11.78,0,0,0,2.59-.3,7.56,7.56,0,0,0,2.4-.94,5.53,5.53,0,0,0,1.78-1.69,4.39,4.39,0,0,0,.7-2.51,4.12,4.12,0,0,0-.7-2.48,5.56,5.56,0,0,0-1.8-1.55,10.66,10.66,0,0,0-2.54-1l-2.92-.72c-1.11-.27-2.08-.53-2.92-.77a16.22,16.22,0,0,1-2.25-.81,4.37,4.37,0,0,1-2.11-1.75,5.81,5.81,0,0,1-.68-3,5.44,5.44,0,0,1,.41-2,5,5,0,0,1,1.35-1.89,7.23,7.23,0,0,1,2.42-1.39,10.77,10.77,0,0,1,3.65-.54,9.69,9.69,0,0,1,6.11,1.75c1.5,1.17,2.25,3.05,2.25,5.62h-.9A7.22,7.22,0,0,0,203.69,228Z"/><path class="cls-3" d="M209.44,231.1a11.7,11.7,0,0,1,2-3.84,10.24,10.24,0,0,1,3.26-2.68,9.63,9.63,0,0,1,4.5-1,9.51,9.51,0,0,1,4.45,1,10.24,10.24,0,0,1,3.26,2.68,11.7,11.7,0,0,1,2,3.84,15.89,15.89,0,0,1,0,9.13,11.7,11.7,0,0,1-2,3.84,9.89,9.89,0,0,1-3.26,2.65,9.75,9.75,0,0,1-4.5,1,9.63,9.63,0,0,1-4.45-1,9.89,9.89,0,0,1-3.26-2.65,11.7,11.7,0,0,1-2-3.84,15.89,15.89,0,0,1,0-9.13Zm.83,8.79a11,11,0,0,0,1.82,3.57,9,9,0,0,0,3,2.47,8.78,8.78,0,0,0,4.12.93,8.66,8.66,0,0,0,4.07-.93,9,9,0,0,0,3-2.47,11,11,0,0,0,1.82-3.57,14.81,14.81,0,0,0,.6-4.23,14.62,14.62,0,0,0-.6-4.18,11,11,0,0,0-1.82-3.57,9.28,9.28,0,0,0-3-2.5,8.54,8.54,0,0,0-4.07-.94,8.66,8.66,0,0,0-4.12.94,9.28,9.28,0,0,0-3,2.5,11,11,0,0,0-1.82,3.57,14.62,14.62,0,0,0-.6,4.18A14.81,14.81,0,0,0,210.27,239.89Z"/><path class="cls-3" d="M233.31,247.22V224.11h.9v5.71h.09a8.87,8.87,0,0,1,1-2.45,6.83,6.83,0,0,1,1.8-2,8.82,8.82,0,0,1,2.67-1.35,11.15,11.15,0,0,1,3.62-.45v.9a8.69,8.69,0,0,0-4.11.65,8,8,0,0,0-2.86,2.16,9.14,9.14,0,0,0-1.66,3.17,12.76,12.76,0,0,0-.54,3.68v13.09Z"/></g><path class="cls-4" d="M169.78,24.57H112.22A55.78,55.78,0,0,0,56.6,80.18v57.57a55.78,55.78,0,0,0,55.62,55.61h57.56a55.78,55.78,0,0,0,55.62-55.61V80.18A55.78,55.78,0,0,0,169.78,24.57ZM127.64,59l6.8-6.81a9.25,9.25,0,0,1,13.08,0l6.8,6.81a9.25,9.25,0,0,1,0,13.08l-6.8,6.8a9.25,9.25,0,0,1-13.08,0l-6.8-6.8A9.25,9.25,0,0,1,127.64,59ZM141,169.28h0a52.09,52.09,0,0,1-52.09-52.09c0-17.86,11-36.62,26-47.87,0,0,3.46-2.66,7.22,2.94s5.6,15.46-3,24.48c-4.75,5-6.7,12.63-6.7,19.25,0,14.92,12.77,27,28.57,27.19,15.8-.16,28.57-12.27,28.57-27.19,0-6.62-1.95-14.28-6.7-19.25-8.64-9-6.8-18.88-3-24.48s7.22-2.94,7.22-2.94c15,11.25,26,30,26,47.87A52.09,52.09,0,0,1,141,169.28Z"/></svg>